<svg id="svg" version="1.1" xmlns="http://www.w3.org/2000/svg" xmlns:xlink="http://www.w3.org/1999/xlink" width="400" height="137.08333333333334" viewBox="0, 0, 400,137.08333333333334"><g id="svgg"><path id="path0" d="M159.333 62.917 L 159.333 97.667 168.161 97.667 C 176.718 97.667,176.994 97.657,177.161 97.344 C 177.274 97.132,177.333 93.489,177.333 86.678 L 177.333 76.333 187.407 76.333 C 193.943 76.333,197.517 76.275,197.583 76.167 C 197.640 76.075,198.059 76.000,198.515 76.000 C 199.098 76.000,199.372 75.926,199.440 75.750 C 199.505 75.580,199.771 75.500,200.268 75.500 C 200.671 75.500,201.000 75.425,201.000 75.333 C 201.000 75.242,201.182 75.167,201.405 75.167 C 201.627 75.167,201.922 75.054,202.060 74.917 C 202.197 74.779,202.460 74.667,202.645 74.667 C 202.829 74.667,203.027 74.592,203.083 74.500 C 203.140 74.408,203.334 74.333,203.515 74.333 C 203.696 74.333,203.887 74.221,203.940 74.083 C 203.992 73.946,204.134 73.833,204.254 73.833 C 204.538 73.833,205.498 73.287,205.499 73.125 C 205.500 73.056,205.612 73.000,205.750 73.000 C 205.887 73.000,206.000 72.925,206.000 72.833 C 206.000 72.742,206.074 72.667,206.164 72.667 C 206.448 72.667,207.654 71.760,207.660 71.542 C 207.664 71.427,207.747 71.333,207.845 71.333 C 208.076 71.333,208.500 70.909,208.500 70.679 C 208.500 70.580,208.580 70.500,208.679 70.500 C 208.909 70.500,209.333 70.076,209.333 69.845 C 209.333 69.747,209.414 69.667,209.512 69.667 C 209.743 69.667,210.167 69.243,210.167 69.012 C 210.167 68.914,210.247 68.833,210.345 68.833 C 210.627 68.833,211.236 68.070,211.441 67.458 C 211.495 67.298,211.593 67.167,211.660 67.167 C 211.726 67.167,211.922 66.904,212.095 66.583 C 212.268 66.262,212.467 66.000,212.538 66.000 C 212.609 66.000,212.667 65.813,212.667 65.583 C 212.667 65.324,212.761 65.167,212.917 65.167 C 213.072 65.167,213.167 65.009,213.167 64.750 C 213.167 64.521,213.242 64.333,213.333 64.333 C 213.425 64.333,213.500 64.154,213.500 63.934 C 213.500 63.715,213.612 63.492,213.750 63.440 C 213.887 63.387,214.000 63.196,214.000 63.015 C 214.000 62.834,214.075 62.640,214.167 62.583 C 214.258 62.527,214.333 62.230,214.333 61.925 C 214.333 61.584,214.430 61.332,214.583 61.273 C 214.740 61.213,214.833 60.958,214.833 60.589 C 214.833 60.265,214.908 60.000,215.000 60.000 C 215.092 60.000,215.167 59.634,215.167 59.187 C 215.167 58.687,215.258 58.298,215.404 58.177 C 215.800 57.849,216.203 49.470,215.841 49.107 C 215.745 49.012,215.667 48.391,215.667 47.729 C 215.667 46.880,215.593 46.450,215.417 46.274 C 215.268 46.125,215.167 45.718,215.167 45.272 C 215.167 44.858,215.092 44.473,215.000 44.417 C 214.908 44.360,214.833 44.056,214.833 43.740 C 214.833 43.341,214.757 43.167,214.583 43.167 C 214.410 43.167,214.333 42.992,214.333 42.593 C 214.333 42.278,214.258 41.973,214.167 41.917 C 214.075 41.860,214.000 41.666,214.000 41.485 C 214.000 41.304,213.887 41.113,213.750 41.060 C 213.612 41.008,213.500 40.785,213.500 40.566 C 213.500 40.346,213.425 40.167,213.333 40.167 C 213.242 40.167,213.167 39.979,213.167 39.750 C 213.167 39.491,213.072 39.333,212.917 39.333 C 212.761 39.333,212.667 39.176,212.667 38.917 C 212.667 38.688,212.592 38.500,212.500 38.500 C 212.408 38.500,212.333 38.391,212.333 38.258 C 212.333 38.124,212.155 37.837,211.937 37.618 C 211.718 37.400,211.488 37.059,211.425 36.861 C 211.362 36.662,211.241 36.500,211.155 36.500 C 211.070 36.500,211.000 36.420,211.000 36.321 C 211.000 36.091,210.576 35.667,210.345 35.667 C 210.247 35.667,210.167 35.586,210.167 35.488 C 210.167 35.257,209.743 34.833,209.512 34.833 C 209.414 34.833,209.333 34.753,209.333 34.655 C 209.333 34.424,208.909 34.000,208.679 34.000 C 208.580 34.000,208.500 33.920,208.500 33.821 C 208.500 33.591,208.076 33.167,207.845 33.167 C 207.747 33.167,207.667 33.063,207.667 32.936 C 207.667 32.809,207.404 32.580,207.083 32.428 C 206.762 32.276,206.500 32.080,206.500 31.992 C 206.500 31.905,206.387 31.833,206.250 31.833 C 206.112 31.833,206.000 31.758,206.000 31.667 C 206.000 31.575,205.848 31.500,205.661 31.500 C 205.475 31.500,205.280 31.387,205.227 31.250 C 205.174 31.112,205.027 31.000,204.899 31.000 C 204.771 31.000,204.667 30.925,204.667 30.833 C 204.667 30.742,204.514 30.667,204.328 30.667 C 204.142 30.667,203.946 30.554,203.894 30.417 C 203.841 30.279,203.618 30.167,203.399 30.167 C 203.179 30.167,203.000 30.092,203.000 30.000 C 203.000 29.908,202.737 29.833,202.417 29.833 C 202.009 29.833,201.833 29.758,201.833 29.583 C 201.833 29.418,201.668 29.333,201.343 29.333 C 201.074 29.333,200.807 29.258,200.750 29.167 C 200.693 29.075,200.384 29.000,200.062 29.000 C 199.740 29.000,199.364 28.887,199.226 28.750 C 199.065 28.589,198.653 28.500,198.071 28.500 C 197.574 28.500,197.167 28.425,197.167 28.333 C 197.167 28.223,190.750 28.167,178.250 28.167 L 159.333 28.167 159.333 62.917 M241.041 62.875 L 241.083 97.583 266.417 97.583 L 291.750 97.583 291.793 89.978 L 291.837 82.373 291.460 82.272 C 291.253 82.217,283.865 82.170,275.042 82.169 L 259.000 82.167 259.000 55.167 L 259.000 28.167 250.000 28.167 L 240.999 28.167 241.041 62.875 M319.041 62.874 L 319.083 97.583 327.958 97.626 L 336.832 97.670 336.874 78.404 L 336.917 59.139 337.292 59.464 C 337.498 59.643,337.667 59.949,337.667 60.145 C 337.667 60.349,337.773 60.500,337.917 60.500 C 338.054 60.500,338.167 60.612,338.167 60.750 C 338.167 60.887,338.242 61.000,338.333 61.000 C 338.425 61.000,338.500 61.139,338.500 61.310 C 338.500 61.480,338.683 61.757,338.907 61.925 C 339.130 62.093,339.357 62.404,339.410 62.615 C 339.463 62.827,339.580 63.000,339.670 63.000 C 339.760 63.000,339.833 63.112,339.833 63.250 C 339.833 63.387,339.891 63.500,339.962 63.500 C 340.033 63.500,340.232 63.762,340.405 64.083 C 340.578 64.404,340.782 64.667,340.860 64.667 C 340.937 64.667,341.000 64.771,341.000 64.899 C 341.000 65.027,341.112 65.174,341.250 65.227 C 341.387 65.280,341.500 65.443,341.500 65.590 C 341.500 65.894,341.887 66.333,342.155 66.333 C 342.253 66.333,342.333 66.521,342.333 66.750 C 342.333 66.979,342.408 67.167,342.500 67.167 C 342.592 67.167,342.667 67.279,342.667 67.417 C 342.667 67.554,342.779 67.667,342.917 67.667 C 343.054 67.667,343.169 67.798,343.172 67.958 C 343.179 68.319,343.554 68.833,343.810 68.833 C 343.915 68.833,344.000 69.021,344.000 69.250 C 344.000 69.479,344.075 69.667,344.167 69.667 C 344.258 69.667,344.333 69.779,344.333 69.917 C 344.333 70.054,344.446 70.167,344.583 70.167 C 344.722 70.167,344.833 70.315,344.833 70.500 C 344.833 70.683,344.908 70.833,345.000 70.833 C 345.092 70.833,345.167 70.946,345.167 71.083 C 345.167 71.221,345.265 71.333,345.386 71.333 C 345.506 71.333,345.707 71.596,345.833 71.917 C 345.959 72.238,346.236 72.630,346.448 72.790 C 346.660 72.949,346.833 73.214,346.833 73.378 C 346.833 73.543,346.946 73.720,347.083 73.773 C 347.221 73.826,347.333 73.973,347.333 74.101 C 347.333 74.229,347.408 74.333,347.500 74.333 C 347.592 74.333,347.667 74.442,347.667 74.576 C 347.667 74.709,347.845 74.997,348.063 75.215 C 348.282 75.433,348.512 75.774,348.575 75.972 C 348.638 76.171,348.759 76.333,348.845 76.333 C 348.930 76.333,349.000 76.411,349.000 76.507 C 349.000 76.671,349.130 76.859,349.625 77.411 C 349.740 77.538,349.833 77.723,349.833 77.821 C 349.833 77.920,349.908 78.000,350.000 78.000 C 350.092 78.000,350.167 78.112,350.167 78.250 C 350.167 78.387,350.279 78.500,350.417 78.500 C 350.558 78.500,350.667 78.649,350.667 78.845 C 350.667 79.214,351.027 79.667,351.321 79.667 C 351.420 79.667,351.500 79.854,351.500 80.083 C 351.500 80.313,351.575 80.500,351.667 80.500 C 351.758 80.500,351.833 80.612,351.833 80.750 C 351.833 80.887,351.946 81.000,352.083 81.000 C 352.221 81.000,352.336 81.131,352.339 81.292 C 352.345 81.652,352.721 82.167,352.977 82.167 C 353.081 82.167,353.167 82.303,353.167 82.470 C 353.167 82.636,353.429 83.068,353.750 83.428 C 354.071 83.788,354.333 84.215,354.333 84.375 C 354.333 84.535,354.446 84.667,354.583 84.667 C 354.721 84.667,354.833 84.779,354.833 84.917 C 354.833 85.054,354.908 85.167,355.000 85.167 C 355.092 85.167,355.167 85.306,355.167 85.477 C 355.167 85.647,355.354 85.927,355.583 86.100 C 355.813 86.272,356.000 86.547,356.000 86.711 C 356.000 86.876,356.113 87.054,356.250 87.106 C 356.387 87.159,356.500 87.307,356.500 87.434 C 356.500 87.562,356.558 87.667,356.629 87.667 C 356.700 87.667,356.899 87.929,357.072 88.250 C 357.244 88.571,357.440 88.833,357.507 88.833 C 357.573 88.833,357.672 88.965,357.726 89.125 C 357.857 89.517,358.171 89.981,358.625 90.456 C 358.831 90.672,359.000 90.958,359.000 91.091 C 359.000 91.224,359.075 91.333,359.167 91.333 C 359.258 91.333,359.333 91.446,359.333 91.583 C 359.333 91.721,359.446 91.833,359.583 91.833 C 359.721 91.833,359.836 91.965,359.839 92.125 C 359.845 92.485,360.221 93.000,360.477 93.000 C 360.581 93.000,360.667 93.160,360.667 93.356 C 360.667 93.552,360.854 93.886,361.083 94.098 C 361.313 94.310,361.500 94.600,361.500 94.742 C 361.500 94.884,361.575 95.000,361.667 95.000 C 361.758 95.000,361.833 95.112,361.833 95.250 C 361.833 95.388,361.938 95.500,362.065 95.500 C 362.193 95.500,362.345 95.689,362.403 95.921 C 362.461 96.152,362.638 96.478,362.796 96.644 C 362.954 96.810,363.166 97.089,363.268 97.265 C 363.446 97.572,363.800 97.585,373.060 97.626 L 382.667 97.669 382.667 62.918 L 382.667 28.167 373.923 28.167 C 365.422 28.167,365.174 28.176,365.004 28.492 C 364.820 28.835,364.890 61.526,365.084 66.125 C 365.152 67.740,365.128 68.500,365.009 68.500 C 364.912 68.500,364.833 68.405,364.833 68.290 C 364.833 68.174,364.665 67.889,364.458 67.656 C 364.053 67.199,363.732 66.730,363.550 66.333 C 363.389 65.981,363.056 65.667,362.845 65.667 C 362.747 65.667,362.667 65.479,362.667 65.250 C 362.667 65.021,362.592 64.833,362.500 64.833 C 362.408 64.833,362.333 64.721,362.333 64.583 C 362.333 64.446,362.221 64.333,362.083 64.333 C 361.946 64.333,361.831 64.202,361.828 64.042 C 361.821 63.681,361.446 63.167,361.190 63.167 C 361.085 63.167,361.000 63.007,361.000 62.811 C 361.000 62.615,360.826 62.293,360.613 62.096 C 360.400 61.899,360.119 61.497,359.989 61.202 C 359.859 60.908,359.658 60.667,359.543 60.667 C 359.428 60.667,359.333 60.554,359.333 60.417 C 359.333 60.279,359.258 60.167,359.167 60.167 C 359.075 60.167,359.000 60.027,359.000 59.857 C 359.000 59.686,358.813 59.406,358.583 59.234 C 358.354 59.062,358.167 58.786,358.167 58.622 C 358.167 58.457,358.054 58.280,357.917 58.227 C 357.779 58.174,357.667 58.027,357.667 57.899 C 357.667 57.771,357.609 57.667,357.538 57.667 C 357.467 57.667,357.268 57.404,357.095 57.083 C 356.922 56.762,356.718 56.500,356.640 56.500 C 356.563 56.500,356.500 56.396,356.500 56.268 C 356.500 56.140,356.387 55.992,356.250 55.940 C 356.113 55.887,356.000 55.724,356.000 55.577 C 356.000 55.273,355.613 54.833,355.345 54.833 C 355.247 54.833,355.167 54.646,355.167 54.417 C 355.167 54.188,355.092 54.000,355.000 54.000 C 354.908 54.000,354.833 53.887,354.833 53.750 C 354.833 53.612,354.721 53.500,354.583 53.500 C 354.446 53.500,354.331 53.369,354.328 53.208 C 354.321 52.848,353.946 52.333,353.690 52.333 C 353.585 52.333,353.500 52.197,353.500 52.030 C 353.500 51.864,353.238 51.432,352.917 51.072 C 352.596 50.712,352.334 50.285,352.333 50.125 C 352.333 49.965,352.221 49.833,352.083 49.833 C 351.946 49.833,351.833 49.721,351.833 49.583 C 351.833 49.446,351.758 49.333,351.667 49.333 C 351.575 49.333,351.500 49.194,351.500 49.023 C 351.500 48.853,351.313 48.573,351.083 48.400 C 350.854 48.228,350.667 47.953,350.667 47.789 C 350.667 47.624,350.554 47.446,350.417 47.394 C 350.279 47.341,350.167 47.193,350.167 47.066 C 350.167 46.938,350.109 46.833,350.038 46.833 C 349.967 46.833,349.768 46.571,349.595 46.250 C 349.422 45.929,349.218 45.667,349.140 45.667 C 349.063 45.667,349.000 45.562,349.000 45.434 C 349.000 45.307,348.887 45.159,348.750 45.106 C 348.613 45.054,348.500 44.890,348.500 44.743 C 348.500 44.440,348.113 44.000,347.845 44.000 C 347.747 44.000,347.667 43.813,347.667 43.583 C 347.667 43.354,347.592 43.167,347.500 43.167 C 347.408 43.167,347.333 43.054,347.333 42.917 C 347.333 42.779,347.221 42.667,347.083 42.667 C 346.946 42.667,346.831 42.535,346.828 42.375 C 346.821 42.015,346.446 41.500,346.190 41.500 C 346.085 41.500,346.000 41.364,346.000 41.197 C 346.000 41.030,345.738 40.599,345.417 40.239 C 345.096 39.878,344.834 39.452,344.833 39.292 C 344.833 39.131,344.721 39.000,344.583 39.000 C 344.446 39.000,344.333 38.887,344.333 38.750 C 344.333 38.612,344.258 38.500,344.167 38.500 C 344.075 38.500,344.000 38.361,344.000 38.190 C 344.000 38.020,343.817 37.743,343.593 37.575 C 343.370 37.407,343.143 37.096,343.090 36.885 C 343.037 36.673,342.920 36.500,342.830 36.500 C 342.740 36.500,342.667 36.420,342.667 36.321 C 342.667 36.223,342.573 36.038,342.458 35.911 C 341.964 35.359,341.833 35.171,341.833 35.007 C 341.833 34.911,341.758 34.833,341.667 34.833 C 341.575 34.833,341.500 34.721,341.500 34.583 C 341.500 34.446,341.387 34.333,341.250 34.333 C 341.108 34.333,341.000 34.184,341.000 33.988 C 341.000 33.619,340.639 33.167,340.345 33.167 C 340.247 33.167,340.167 32.979,340.167 32.750 C 340.167 32.521,340.092 32.333,340.000 32.333 C 339.908 32.333,339.833 32.221,339.833 32.083 C 339.833 31.946,339.721 31.833,339.583 31.833 C 339.446 31.833,339.331 31.702,339.328 31.542 C 339.321 31.181,338.946 30.667,338.690 30.667 C 338.585 30.667,338.500 30.523,338.500 30.348 C 338.500 30.172,338.244 29.765,337.931 29.443 C 337.618 29.121,337.336 28.721,337.304 28.554 C 337.248 28.265,336.796 28.248,328.122 28.207 L 318.999 28.164 319.041 62.874 M191.500 43.661 C 191.500 43.749,191.875 43.872,192.333 43.932 C 192.792 43.993,193.167 44.108,193.167 44.188 C 193.167 44.268,193.354 44.333,193.583 44.333 C 193.813 44.333,194.000 44.392,194.000 44.464 C 194.000 44.536,194.229 44.730,194.510 44.896 C 195.044 45.212,196.000 46.084,196.000 46.256 C 196.000 46.311,196.188 46.601,196.417 46.902 C 196.646 47.202,196.833 47.563,196.833 47.704 C 196.833 47.844,196.946 48.053,197.083 48.167 C 197.227 48.286,197.333 48.649,197.333 49.020 C 197.333 49.376,197.408 49.667,197.500 49.667 C 197.604 49.667,197.667 50.639,197.667 52.250 C 197.667 53.861,197.604 54.833,197.500 54.833 C 197.408 54.833,197.331 55.077,197.328 55.375 C 197.325 55.673,197.213 56.062,197.078 56.240 C 196.943 56.418,196.833 56.692,196.833 56.848 C 196.833 57.004,196.647 57.308,196.420 57.524 C 196.192 57.740,196.004 58.048,196.003 58.208 C 196.001 58.369,195.925 58.500,195.833 58.500 C 195.742 58.500,195.667 58.612,195.667 58.750 C 195.667 58.887,195.554 59.000,195.417 59.000 C 195.279 59.000,195.167 59.075,195.167 59.167 C 195.167 59.258,195.052 59.333,194.911 59.333 C 194.771 59.333,194.613 59.446,194.560 59.583 C 194.508 59.721,194.360 59.833,194.232 59.833 C 194.104 59.833,194.000 59.908,194.000 60.000 C 194.000 60.092,193.813 60.167,193.583 60.167 C 193.324 60.167,193.167 60.261,193.167 60.417 C 193.167 60.602,192.972 60.667,192.417 60.667 C 192.004 60.667,191.667 60.742,191.667 60.833 C 191.667 60.942,189.167 61.000,184.500 61.000 L 177.333 61.000 177.333 52.250 L 177.333 43.500 184.417 43.500 C 188.859 43.500,191.500 43.560,191.500 43.661 M43.500 49.168 C 40.979 49.428,36.049 51.045,34.958 51.971 C 34.616 52.261,34.500 59.333,34.838 59.333 C 34.932 59.333,35.513 59.073,36.130 58.754 C 41.429 56.016,45.814 55.522,49.421 57.257 C 50.865 57.952,50.965 57.959,51.097 57.375 C 51.154 57.123,51.370 56.392,51.577 55.750 C 51.785 55.108,52.082 54.133,52.238 53.583 C 52.395 53.033,52.592 52.411,52.678 52.200 C 52.977 51.464,52.868 50.930,52.375 50.714 C 52.123 50.604,51.559 50.357,51.123 50.165 C 49.150 49.298,46.108 48.900,43.500 49.168 M67.083 49.146 C 65.914 49.250,65.500 49.388,65.500 49.672 C 65.500 49.756,65.320 50.220,65.100 50.704 C 64.880 51.188,64.270 52.633,63.746 53.917 C 63.221 55.200,62.641 56.572,62.458 56.965 C 62.019 57.904,62.123 57.958,63.369 57.443 C 65.513 56.558,66.239 56.429,69.083 56.429 C 72.244 56.429,72.852 56.563,75.583 57.861 C 76.096 58.104,76.337 58.138,76.625 58.005 C 76.831 57.911,77.169 57.763,77.375 57.676 C 77.581 57.590,78.183 57.327,78.713 57.093 C 79.243 56.858,79.717 56.667,79.766 56.667 C 79.815 56.667,80.265 56.479,80.766 56.250 C 81.267 56.021,81.717 55.833,81.766 55.833 C 81.815 55.833,82.265 55.646,82.766 55.417 C 83.267 55.188,83.717 55.000,83.766 55.000 C 83.815 55.000,84.265 54.813,84.766 54.583 C 85.267 54.354,85.718 54.167,85.770 54.167 C 85.821 54.167,86.349 53.942,86.943 53.667 C 88.143 53.111,88.667 53.037,88.667 53.423 C 88.667 53.698,87.613 56.560,87.334 57.039 C 86.810 57.944,87.116 58.013,88.518 57.304 C 91.394 55.850,95.470 56.054,99.198 57.838 C 100.293 58.363,100.858 58.680,101.000 58.850 C 101.103 58.974,101.777 59.333,101.906 59.333 C 102.113 59.333,102.004 52.235,101.792 51.964 C 100.531 50.352,96.446 49.128,92.333 49.131 C 89.137 49.133,88.514 49.298,86.041 50.801 C 83.211 52.521,80.476 52.577,76.583 50.995 C 76.308 50.883,75.933 50.736,75.750 50.667 C 75.567 50.598,75.192 50.448,74.917 50.334 C 72.570 49.362,69.645 48.919,67.083 49.146 M41.750 67.773 C 40.681 68.030,38.081 68.821,37.667 69.015 C 37.529 69.080,37.079 69.268,36.667 69.434 C 36.254 69.601,35.635 69.909,35.292 70.120 L 34.667 70.504 34.667 74.085 C 34.667 76.609,34.722 77.667,34.853 77.667 C 34.955 77.667,35.959 77.217,37.083 76.667 C 38.208 76.117,39.250 75.667,39.400 75.667 C 39.549 75.667,39.801 75.599,39.961 75.516 C 40.674 75.144,44.015 74.500,45.233 74.500 C 45.872 74.500,45.871 74.501,46.594 72.083 C 46.841 71.258,47.220 70.046,47.438 69.389 C 48.105 67.374,48.247 67.497,45.292 67.517 C 43.709 67.527,42.373 67.624,41.750 67.773 M88.917 67.768 C 87.862 68.078,87.536 68.235,86.000 69.172 C 84.754 69.932,83.296 70.500,82.589 70.500 C 82.202 70.500,82.087 70.724,80.897 73.792 C 80.657 74.410,80.292 75.330,80.086 75.835 C 79.879 76.341,79.659 76.990,79.595 77.279 L 79.480 77.805 80.591 77.924 C 82.739 78.154,84.875 77.767,86.385 76.875 C 86.734 76.669,87.090 76.500,87.176 76.500 C 87.263 76.500,87.333 76.425,87.333 76.333 C 87.333 76.242,87.410 76.167,87.503 76.167 C 87.597 76.167,87.953 75.991,88.295 75.776 C 91.269 73.906,97.027 74.522,100.891 77.122 C 101.336 77.422,101.768 77.667,101.850 77.667 C 102.096 77.667,102.040 70.615,101.792 70.297 C 101.545 69.982,99.757 68.833,99.514 68.833 C 99.421 68.833,99.061 68.710,98.714 68.560 C 97.699 68.121,97.482 68.053,96.167 67.767 C 94.531 67.412,90.127 67.412,88.917 67.768 M72.500 70.470 C 72.179 70.630,71.542 70.921,71.083 71.117 C 70.625 71.314,69.516 71.818,68.619 72.237 C 67.721 72.657,66.961 73.000,66.929 73.000 C 66.897 73.000,66.074 73.375,65.100 73.833 C 64.125 74.292,63.294 74.667,63.251 74.667 C 63.209 74.667,62.591 74.936,61.879 75.265 C 61.166 75.595,60.171 76.051,59.667 76.280 C 59.163 76.509,58.450 76.836,58.083 77.006 C 57.717 77.177,57.210 77.393,56.958 77.487 C 56.101 77.808,56.421 78.042,57.542 77.914 C 58.906 77.759,59.725 77.485,61.796 76.490 C 62.737 76.037,63.604 75.667,63.721 75.667 C 63.838 75.667,64.005 75.603,64.092 75.525 C 64.721 74.961,68.611 74.548,70.980 74.793 L 72.376 74.938 72.605 74.391 C 72.731 74.090,72.833 73.622,72.833 73.350 C 72.833 73.078,72.901 72.677,72.984 72.458 C 73.212 71.860,73.392 70.166,73.228 70.173 C 73.148 70.177,72.821 70.310,72.500 70.470 M41.750 86.107 C 40.756 86.345,38.145 87.133,37.667 87.339 C 37.529 87.398,36.817 87.739,36.083 88.098 L 34.750 88.750 34.705 92.246 C 34.649 96.604,34.497 96.321,36.368 95.359 C 37.220 94.920,38.292 94.430,38.750 94.268 C 39.208 94.106,39.733 93.913,39.917 93.839 C 43.143 92.529,47.149 92.678,49.917 94.209 C 54.902 96.969,57.180 97.080,61.881 94.793 C 62.778 94.357,63.607 94.000,63.723 94.000 C 63.838 94.000,64.005 93.937,64.092 93.860 C 64.362 93.620,66.354 93.189,67.701 93.078 C 69.118 92.962,69.016 93.062,69.324 91.500 C 69.424 90.996,69.659 89.833,69.846 88.917 C 70.034 88.000,70.230 86.931,70.282 86.542 L 70.377 85.833 68.449 85.833 C 66.023 85.833,63.786 86.346,61.000 87.539 C 57.176 89.178,56.034 89.182,52.713 87.573 C 51.685 87.075,50.741 86.667,50.616 86.667 C 50.491 86.667,50.337 86.615,50.274 86.552 C 49.615 85.893,43.886 85.593,41.750 86.107 M88.917 86.102 C 87.863 86.411,87.537 86.568,86.000 87.505 C 83.886 88.793,81.346 89.137,79.000 88.452 C 78.496 88.305,77.783 88.099,77.417 87.994 C 77.050 87.888,76.679 87.734,76.592 87.651 C 76.000 87.086,75.596 87.467,74.939 89.209 C 74.585 90.148,74.200 91.142,74.083 91.417 C 73.796 92.091,73.333 93.323,73.333 93.413 C 73.333 93.510,77.401 95.469,78.250 95.781 C 81.095 96.827,84.209 96.515,86.917 94.913 C 90.497 92.795,94.157 92.421,97.583 93.824 C 97.767 93.899,98.254 94.096,98.667 94.263 C 99.079 94.429,99.925 94.888,100.547 95.283 C 101.168 95.677,101.750 96.000,101.839 96.000 C 102.093 96.000,102.040 88.983,101.783 88.646 C 101.466 88.230,100.095 87.408,99.036 87.001 C 98.512 86.799,97.933 86.572,97.750 86.496 C 96.135 85.828,90.676 85.584,88.917 86.102 " stroke="none" fill="#04aceb" fill-rule="evenodd"></path><path id="path1" d="M61.248 25.583 C 61.137 25.675,60.930 26.125,60.789 26.583 C 60.648 27.042,60.219 28.429,59.836 29.667 C 59.453 30.904,59.072 32.142,58.989 32.417 C 58.622 33.632,57.459 37.463,57.319 37.917 C 57.234 38.192,56.983 39.017,56.761 39.750 C 55.973 42.349,54.978 45.589,54.840 46.000 C 54.764 46.229,54.572 46.867,54.414 47.417 C 54.110 48.476,53.403 50.801,53.172 51.500 C 53.096 51.729,52.905 52.367,52.747 52.917 C 52.373 54.219,51.716 56.345,51.330 57.500 C 51.051 58.335,50.937 58.713,50.499 60.250 C 50.197 61.311,49.846 62.471,49.416 63.833 C 49.170 64.612,48.906 65.475,48.829 65.750 C 48.659 66.357,47.527 70.052,46.915 72.000 C 46.670 72.779,46.408 73.642,46.334 73.917 C 46.196 74.424,45.154 77.817,44.388 80.250 C 44.158 80.983,43.910 81.808,43.837 82.083 C 43.764 82.358,43.651 82.715,43.585 82.875 C 43.412 83.294,43.653 83.246,45.121 82.571 C 45.834 82.244,46.642 81.875,46.917 81.753 C 47.192 81.630,47.904 81.308,48.500 81.037 C 49.096 80.766,49.958 80.374,50.417 80.167 C 50.875 79.959,51.737 79.568,52.333 79.297 C 52.929 79.026,53.679 78.689,54.000 78.548 C 54.321 78.407,55.033 78.083,55.583 77.828 C 56.133 77.574,56.996 77.178,57.500 76.950 C 58.688 76.412,65.359 73.399,66.333 72.960 C 66.746 72.774,67.533 72.417,68.083 72.167 C 68.633 71.916,69.458 71.541,69.917 71.334 C 70.375 71.127,71.299 70.704,71.971 70.395 C 73.868 69.521,73.900 69.548,73.457 71.642 C 73.289 72.435,73.088 73.458,73.011 73.917 C 72.788 75.228,72.507 76.690,72.338 77.417 C 72.253 77.783,72.063 78.758,71.917 79.583 C 71.770 80.408,71.577 81.421,71.488 81.833 C 71.279 82.804,70.602 86.331,70.257 88.250 C 70.109 89.075,69.922 90.050,69.841 90.417 C 69.706 91.031,69.379 92.689,68.988 94.750 C 68.901 95.208,68.650 96.521,68.429 97.667 C 68.209 98.813,67.841 100.725,67.612 101.917 C 67.382 103.108,66.996 105.133,66.754 106.417 C 66.512 107.700,66.205 109.215,66.073 109.784 C 65.791 111.000,65.770 111.500,66.000 111.500 C 66.092 111.500,66.167 111.390,66.167 111.256 C 66.167 111.121,66.290 110.728,66.440 110.381 C 66.740 109.688,66.863 109.373,67.175 108.500 C 67.290 108.179,67.476 107.692,67.589 107.417 C 67.702 107.142,67.889 106.654,68.005 106.333 C 68.122 106.013,68.309 105.525,68.422 105.250 C 68.535 104.975,68.723 104.487,68.839 104.167 C 68.955 103.846,69.141 103.358,69.252 103.083 C 69.364 102.808,69.586 102.246,69.747 101.833 C 69.908 101.421,70.099 100.933,70.170 100.750 C 70.242 100.567,70.489 99.929,70.719 99.333 C 70.949 98.737,71.328 97.763,71.561 97.167 C 71.794 96.571,72.371 95.071,72.844 93.833 C 73.317 92.596,73.914 91.058,74.170 90.417 C 74.426 89.775,75.513 86.962,76.584 84.167 C 77.655 81.371,78.667 78.746,78.832 78.333 C 78.997 77.921,79.301 77.133,79.507 76.583 C 79.714 76.033,79.975 75.358,80.088 75.083 C 80.202 74.808,80.389 74.321,80.505 74.000 C 80.622 73.679,80.809 73.192,80.922 72.917 C 81.035 72.642,81.223 72.154,81.339 71.833 C 81.455 71.512,81.642 71.025,81.755 70.750 C 81.868 70.475,82.056 69.987,82.172 69.667 C 82.288 69.346,82.476 68.858,82.589 68.583 C 82.825 68.011,83.488 66.317,84.071 64.793 C 84.291 64.219,84.674 63.225,84.923 62.583 C 85.172 61.942,85.561 60.929,85.787 60.333 C 86.014 59.737,86.269 59.118,86.353 58.956 C 86.437 58.795,86.622 58.307,86.766 57.873 C 86.909 57.439,87.320 56.357,87.680 55.469 C 88.599 53.198,88.613 53.223,86.917 54.000 C 86.316 54.275,85.785 54.500,85.735 54.500 C 85.686 54.500,85.235 54.688,84.734 54.917 C 84.233 55.146,83.783 55.333,83.734 55.333 C 83.685 55.333,83.235 55.521,82.734 55.750 C 82.233 55.979,81.783 56.167,81.734 56.167 C 81.685 56.167,81.235 56.354,80.734 56.583 C 80.233 56.812,79.783 57.000,79.734 57.000 C 79.685 57.000,79.240 57.186,78.744 57.412 C 78.248 57.639,77.652 57.872,77.420 57.931 C 77.187 57.989,76.956 58.104,76.905 58.185 C 76.855 58.267,76.711 58.333,76.586 58.333 C 76.460 58.333,75.789 58.596,75.095 58.917 C 74.400 59.237,73.790 59.500,73.739 59.500 C 73.687 59.500,73.235 59.687,72.734 59.917 C 72.233 60.146,71.783 60.333,71.734 60.333 C 71.685 60.333,71.235 60.521,70.734 60.750 C 70.233 60.979,69.783 61.167,69.734 61.167 C 69.685 61.167,69.235 61.354,68.734 61.583 C 68.233 61.813,67.783 62.000,67.734 62.000 C 67.685 62.000,67.235 62.188,66.734 62.417 C 66.233 62.646,65.783 62.833,65.734 62.833 C 65.685 62.833,65.235 63.021,64.734 63.250 C 64.233 63.479,63.783 63.667,63.734 63.667 C 63.685 63.667,63.235 63.854,62.734 64.083 C 62.233 64.313,61.783 64.500,61.734 64.500 C 61.685 64.500,61.219 64.697,60.698 64.937 C 58.959 65.739,58.360 65.717,58.830 64.868 C 59.052 64.467,59.833 62.675,59.833 62.568 C 59.833 62.519,60.021 62.069,60.250 61.568 C 60.479 61.067,60.667 60.617,60.667 60.568 C 60.667 60.519,60.862 60.052,61.101 59.531 C 61.340 59.010,61.756 58.021,62.026 57.333 C 62.295 56.646,62.619 55.858,62.744 55.583 C 62.869 55.308,65.645 48.671,68.913 40.833 C 72.181 32.996,74.962 26.366,75.094 26.099 C 75.226 25.833,75.333 25.591,75.333 25.561 C 75.333 25.412,61.429 25.433,61.248 25.583 " stroke="none" fill="#eb1e24" fill-rule="evenodd"></path><path id="path2" d="M11.454 9.335 C 11.066 9.788,11.011 126.031,11.399 126.542 C 11.743 126.996,124.923 126.996,125.268 126.542 C 125.451 126.300,125.490 116.162,125.495 67.951 L 125.500 9.653 125.159 9.287 C 124.869 8.976,124.795 8.958,124.662 9.169 C 124.557 9.335,124.504 9.348,124.503 9.208 C 124.501 9.042,113.157 9.000,68.347 9.000 C 23.581 9.000,12.177 9.042,12.110 9.208 C 12.043 9.375,12.024 9.375,12.013 9.208 C 11.994 8.905,11.781 8.953,11.454 9.335 M75.472 25.471 C 75.502 25.684,75.403 26.134,75.252 26.471 C 74.937 27.174,74.839 27.406,74.332 28.667 C 74.129 29.171,73.817 29.921,73.639 30.333 C 73.461 30.746,73.252 31.233,73.175 31.417 C 72.859 32.165,72.470 33.103,72.344 33.417 C 72.271 33.600,72.131 33.938,72.034 34.167 C 71.936 34.396,71.747 34.846,71.614 35.167 C 71.482 35.487,71.246 36.050,71.092 36.417 C 70.937 36.783,70.741 37.252,70.655 37.458 C 70.570 37.665,70.430 38.002,70.345 38.208 C 70.259 38.415,70.064 38.883,69.911 39.250 C 69.758 39.617,69.570 40.067,69.494 40.250 C 69.418 40.433,69.231 40.883,69.078 41.250 C 68.925 41.617,68.737 42.067,68.661 42.250 C 68.585 42.433,68.397 42.883,68.244 43.250 C 68.091 43.617,67.904 44.067,67.828 44.250 C 67.407 45.263,67.141 45.891,66.928 46.375 C 65.952 48.598,65.838 48.953,66.170 48.748 C 66.473 48.561,71.191 48.625,71.386 48.819 C 71.485 48.919,71.793 49.000,72.069 49.000 C 72.513 49.000,73.379 49.248,74.417 49.671 C 74.600 49.746,75.125 49.938,75.583 50.098 C 76.042 50.258,76.488 50.451,76.575 50.528 C 76.662 50.604,76.860 50.667,77.014 50.667 C 77.169 50.667,77.510 50.779,77.773 50.916 C 78.035 51.053,78.404 51.165,78.592 51.166 C 78.780 51.166,79.014 51.248,79.113 51.346 C 79.807 52.040,85.016 51.351,85.667 50.480 C 85.875 50.200,88.333 49.033,88.924 48.933 C 92.410 48.343,96.338 48.648,98.833 49.704 C 99.628 50.040,100.417 50.417,100.500 50.500 C 100.546 50.546,100.779 50.685,101.019 50.808 C 101.259 50.931,101.652 51.215,101.894 51.439 L 102.333 51.847 102.333 55.845 C 102.333 59.446,102.305 59.855,102.052 59.952 C 101.894 60.012,101.741 59.973,101.704 59.863 C 101.668 59.755,101.539 59.667,101.417 59.667 C 101.294 59.667,101.169 59.610,101.139 59.542 C 100.972 59.166,97.703 57.500,97.133 57.500 C 97.005 57.500,96.829 57.433,96.742 57.350 C 96.354 56.984,91.470 56.780,90.206 57.077 C 88.949 57.373,86.731 58.764,86.486 59.411 C 86.380 59.689,86.202 60.142,86.089 60.417 C 85.976 60.692,85.788 61.179,85.672 61.500 C 85.556 61.821,85.368 62.308,85.255 62.583 C 85.142 62.858,84.956 63.346,84.842 63.667 C 84.727 63.987,84.567 64.400,84.486 64.583 C 84.253 65.113,82.500 69.685,82.500 69.763 C 82.500 69.889,84.137 69.837,84.194 69.708 C 84.225 69.640,84.550 69.438,84.917 69.259 C 85.283 69.081,85.808 68.775,86.083 68.579 C 86.887 68.007,88.439 67.333,88.956 67.333 C 89.219 67.333,89.516 67.251,89.617 67.149 C 89.862 66.905,94.853 66.910,95.311 67.155 C 95.494 67.253,95.893 67.334,96.197 67.336 C 97.342 67.341,100.920 68.870,101.889 69.769 L 102.333 70.180 102.333 74.179 C 102.333 77.779,102.305 78.188,102.052 78.285 C 101.894 78.346,101.741 78.306,101.704 78.197 C 101.668 78.088,101.539 78.000,101.417 78.000 C 101.294 78.000,101.169 77.944,101.139 77.875 C 100.972 77.499,97.703 75.833,97.133 75.833 C 97.005 75.833,96.829 75.766,96.742 75.684 C 96.335 75.300,91.983 75.047,90.667 75.332 C 89.664 75.548,89.690 75.537,88.250 76.333 C 87.700 76.637,87.100 76.968,86.917 77.068 C 86.733 77.168,86.546 77.287,86.500 77.333 C 86.260 77.573,85.259 78.000,84.936 78.000 C 84.733 78.000,84.473 78.094,84.358 78.208 C 84.210 78.357,83.438 78.415,81.668 78.410 C 78.907 78.403,79.146 78.303,78.658 79.667 C 78.544 79.987,78.358 80.475,78.245 80.750 C 78.132 81.025,77.944 81.512,77.828 81.833 C 77.712 82.154,77.525 82.642,77.414 82.917 C 75.791 86.917,75.739 87.304,76.821 87.328 C 76.951 87.331,77.626 87.531,78.321 87.772 C 81.080 88.732,83.958 88.410,86.083 86.904 C 88.574 85.140,93.702 84.730,97.667 85.978 C 98.963 86.386,101.315 87.569,101.889 88.102 L 102.333 88.513 102.333 92.512 C 102.333 97.102,102.345 97.071,101.023 96.100 C 100.573 95.770,100.158 95.500,100.099 95.500 C 100.041 95.500,99.714 95.329,99.372 95.121 C 99.030 94.912,98.337 94.606,97.833 94.440 C 97.329 94.274,96.767 94.079,96.583 94.006 C 93.861 92.928,90.260 93.404,87.246 95.240 C 85.142 96.522,84.267 96.752,81.542 96.742 C 80.056 96.736,79.268 96.668,79.133 96.533 C 79.023 96.423,78.760 96.333,78.548 96.333 C 78.336 96.333,78.032 96.264,77.873 96.179 C 77.714 96.095,77.058 95.776,76.417 95.471 C 75.775 95.166,75.225 94.860,75.194 94.792 C 75.164 94.723,75.010 94.667,74.853 94.667 C 74.695 94.667,74.495 94.599,74.408 94.515 C 74.035 94.159,73.000 94.011,73.000 94.313 C 73.000 94.471,72.937 94.671,72.861 94.758 C 72.784 94.845,72.591 95.292,72.431 95.750 C 72.271 96.208,72.073 96.733,71.989 96.917 C 71.906 97.100,71.236 98.825,70.500 100.750 C 69.764 102.675,69.094 104.400,69.012 104.583 C 68.930 104.767,68.397 106.154,67.828 107.667 C 67.259 109.179,66.698 110.642,66.582 110.917 C 66.466 111.192,66.206 111.842,66.005 112.363 C 65.283 114.225,64.966 113.414,65.506 111.083 C 65.678 110.340,65.972 108.807,66.163 107.667 C 66.231 107.254,66.454 106.092,66.657 105.083 C 67.107 102.851,67.654 100.026,68.239 96.917 C 68.481 95.633,68.747 94.330,68.830 94.020 L 68.982 93.457 67.783 93.562 C 65.958 93.722,65.299 93.837,64.725 94.096 C 64.436 94.227,64.149 94.333,64.087 94.333 C 63.979 94.333,62.352 95.074,60.581 95.930 C 60.121 96.152,59.593 96.333,59.406 96.333 C 59.219 96.333,58.975 96.425,58.862 96.538 C 58.571 96.829,54.809 96.818,53.833 96.524 C 53.093 96.301,51.725 95.673,50.408 94.953 C 47.404 93.309,43.611 92.928,40.917 93.999 C 39.968 94.376,39.041 94.667,38.786 94.667 C 38.629 94.667,38.500 94.736,38.500 94.820 C 38.500 94.904,38.276 95.023,38.002 95.083 C 37.728 95.143,37.461 95.262,37.409 95.346 C 37.356 95.431,37.168 95.500,36.990 95.500 C 36.812 95.500,36.666 95.556,36.665 95.625 C 36.664 95.694,36.327 95.898,35.915 96.079 C 35.503 96.260,35.167 96.471,35.167 96.549 C 35.167 96.626,34.998 96.666,34.792 96.637 L 34.417 96.583 34.372 92.703 C 34.329 88.953,34.410 88.167,34.843 88.167 C 34.933 88.167,35.304 87.979,35.667 87.750 C 36.030 87.521,36.478 87.333,36.663 87.333 C 36.849 87.333,37.000 87.274,37.000 87.201 C 37.000 87.128,37.431 86.934,37.958 86.768 C 38.485 86.602,39.045 86.400,39.203 86.319 C 39.808 86.006,41.534 85.650,44.042 85.323 C 44.939 85.206,45.754 85.209,46.708 85.335 C 47.465 85.434,48.421 85.557,48.833 85.607 C 49.246 85.658,49.655 85.767,49.742 85.849 C 49.829 85.932,50.005 86.000,50.133 86.000 C 50.407 86.000,50.970 86.245,53.318 87.385 C 55.724 88.553,57.709 88.586,59.706 87.492 C 59.865 87.405,60.110 87.333,60.250 87.333 C 60.390 87.333,60.635 87.263,60.794 87.177 C 61.511 86.791,62.240 86.500,62.492 86.500 C 62.643 86.500,62.838 86.432,62.925 86.349 C 63.458 85.840,67.964 85.093,69.537 85.252 C 70.432 85.343,70.495 85.325,70.574 84.966 C 70.684 84.465,71.003 82.780,71.168 81.833 C 71.240 81.421,71.427 80.446,71.583 79.667 C 71.740 78.887,71.928 77.912,72.002 77.500 C 72.075 77.087,72.187 76.481,72.252 76.152 C 72.368 75.557,72.363 75.552,71.629 75.346 C 70.377 74.996,65.869 75.256,64.750 75.744 C 64.475 75.864,63.950 76.062,63.583 76.185 C 63.217 76.308,62.637 76.579,62.295 76.788 C 61.953 76.996,61.611 77.167,61.535 77.167 C 61.458 77.167,61.063 77.328,60.656 77.526 C 59.337 78.166,57.357 78.561,56.001 78.454 C 55.230 78.394,54.900 78.467,53.917 78.920 C 53.275 79.215,52.375 79.627,51.917 79.834 C 51.458 80.041,50.633 80.416,50.083 80.667 C 49.533 80.917,48.708 81.292,48.250 81.499 C 46.671 82.213,44.915 83.016,44.250 83.327 C 43.278 83.782,43.021 83.502,43.392 82.389 C 43.986 80.606,44.632 78.513,45.082 76.917 C 45.237 76.367,45.427 75.754,45.505 75.556 C 45.696 75.069,45.377 74.964,44.098 75.089 C 42.442 75.252,39.811 75.878,39.425 76.201 C 39.338 76.274,39.139 76.333,38.982 76.333 C 38.740 76.333,38.275 76.532,36.667 77.324 C 36.529 77.391,36.050 77.650,35.603 77.899 C 34.304 78.621,34.333 78.702,34.333 74.328 C 34.333 70.645,34.425 69.833,34.843 69.833 C 34.933 69.833,35.304 69.646,35.667 69.417 C 36.030 69.187,36.478 69.000,36.663 69.000 C 36.849 69.000,37.000 68.941,37.000 68.868 C 37.000 68.795,37.431 68.599,37.958 68.432 C 38.485 68.265,39.067 68.068,39.250 67.996 C 40.109 67.655,41.362 67.333,41.834 67.333 C 42.121 67.333,42.508 67.251,42.696 67.151 C 42.901 67.041,44.043 66.972,45.570 66.975 L 48.104 66.982 48.405 66.033 C 48.571 65.511,48.766 64.896,48.840 64.667 C 48.913 64.438,49.102 63.800,49.258 63.250 C 49.648 61.881,50.337 59.665,50.518 59.200 C 50.783 58.519,50.685 58.390,49.458 57.797 C 48.014 57.097,47.250 56.875,45.917 56.768 C 44.695 56.669,41.499 57.014,40.750 57.326 C 40.567 57.402,40.042 57.592,39.583 57.748 C 38.293 58.187,36.854 58.847,35.436 59.652 C 34.326 60.282,34.333 60.307,34.333 55.922 C 34.333 51.227,34.106 51.682,37.083 50.431 C 37.450 50.277,37.880 50.079,38.039 49.992 C 38.199 49.905,38.467 49.833,38.637 49.833 C 38.806 49.833,39.001 49.777,39.069 49.708 C 39.204 49.574,40.411 49.246,41.750 48.980 C 43.247 48.682,45.307 48.561,46.708 48.689 C 49.337 48.928,50.040 49.120,52.266 50.209 L 53.116 50.625 53.412 49.604 C 53.574 49.043,53.875 48.058,54.080 47.417 C 54.285 46.775,54.659 45.575,54.911 44.750 C 55.163 43.925,55.431 43.063,55.505 42.833 C 55.579 42.604,55.768 41.967,55.924 41.417 C 56.080 40.867,56.375 39.892,56.581 39.250 C 56.786 38.608,57.085 37.633,57.245 37.083 C 57.405 36.533,57.631 35.783,57.748 35.417 C 57.864 35.050,58.127 34.188,58.333 33.500 C 58.539 32.813,58.886 31.688,59.104 31.000 C 59.564 29.552,59.695 29.116,60.086 27.750 C 60.568 26.066,60.871 25.329,61.150 25.165 C 61.308 25.072,64.263 25.023,68.417 25.046 L 75.417 25.083 75.472 25.471 M66.083 57.027 C 65.717 57.116,65.154 57.268,64.833 57.364 C 64.286 57.528,64.009 57.639,62.470 58.314 C 62.132 58.462,61.787 58.733,61.702 58.917 C 61.010 60.416,59.148 65.037,59.211 65.100 C 59.294 65.183,59.688 65.038,61.130 64.394 C 61.613 64.177,62.068 64.000,62.140 64.000 C 62.212 64.000,62.660 63.813,63.135 63.583 C 63.610 63.354,64.060 63.167,64.135 63.167 C 64.210 63.167,64.660 62.979,65.135 62.750 C 65.610 62.521,66.060 62.333,66.135 62.333 C 66.210 62.333,66.660 62.146,67.135 61.917 C 67.610 61.688,68.060 61.500,68.135 61.500 C 68.210 61.500,68.660 61.313,69.135 61.083 C 69.610 60.854,70.060 60.667,70.135 60.667 C 70.210 60.667,70.660 60.479,71.135 60.250 C 71.610 60.021,72.060 59.833,72.135 59.833 C 72.210 59.833,72.660 59.646,73.135 59.417 C 73.610 59.188,74.060 59.000,74.136 59.000 C 74.212 59.000,74.550 58.866,74.888 58.701 C 75.492 58.408,75.487 58.000,74.881 58.000 C 74.761 58.000,74.532 57.929,74.373 57.841 C 72.836 56.999,68.101 56.534,66.083 57.027 " stroke="none" fill="#fbf304" fill-rule="evenodd"></path><path id="path3" d="M42.667 49.080 C 39.753 49.561,35.311 51.167,34.708 51.957 C 34.457 52.287,34.406 59.422,34.654 59.576 C 34.739 59.628,35.362 59.380,36.038 59.024 C 41.379 56.211,46.042 55.753,49.836 57.668 C 50.384 57.945,50.833 58.114,50.833 58.044 C 50.832 57.782,48.146 56.665,46.889 56.405 C 44.061 55.819,40.164 56.670,36.130 58.754 C 35.513 59.073,34.932 59.333,34.838 59.333 C 34.500 59.333,34.616 52.261,34.958 51.971 C 35.692 51.348,39.434 49.955,41.833 49.412 C 45.029 48.689,50.247 49.319,52.250 50.669 C 52.498 50.837,53.000 51.001,53.000 50.914 C 53.000 50.766,51.396 50.030,50.167 49.614 C 47.870 48.837,45.263 48.651,42.667 49.080 M66.667 48.955 C 65.453 49.098,65.905 49.249,67.215 49.139 C 69.772 48.923,72.551 49.355,74.917 50.334 C 75.192 50.448,75.567 50.598,75.750 50.667 C 75.933 50.736,76.308 50.883,76.583 50.995 C 80.476 52.577,83.211 52.521,86.041 50.801 C 88.514 49.298,89.137 49.133,92.333 49.131 C 96.446 49.128,100.531 50.352,101.792 51.964 C 102.004 52.235,102.113 59.333,101.906 59.333 C 101.777 59.333,101.103 58.974,101.000 58.850 C 100.858 58.680,100.293 58.363,99.198 57.838 C 95.054 55.854,90.765 55.838,87.609 57.794 C 86.583 58.429,87.024 58.404,88.103 57.765 C 90.587 56.295,94.567 56.129,97.646 57.369 C 98.780 57.825,100.166 58.524,100.999 59.058 C 102.211 59.835,102.195 59.887,102.134 55.517 L 102.083 51.870 101.667 51.522 C 97.928 48.397,89.555 47.966,85.800 50.705 C 84.382 51.739,82.546 52.135,80.541 51.837 C 79.158 51.633,78.414 51.406,74.083 49.875 C 71.429 48.936,69.192 48.658,66.667 48.955 M66.665 56.484 C 65.293 56.679,62.169 57.754,62.167 58.032 C 62.167 58.096,62.706 57.925,63.365 57.654 C 67.027 56.143,71.448 56.154,74.784 57.682 C 75.383 57.957,75.913 58.143,75.960 58.095 C 76.007 58.048,75.865 57.940,75.643 57.856 C 75.421 57.772,74.904 57.549,74.495 57.362 C 72.673 56.528,69.140 56.132,66.665 56.484 M43.083 67.348 C 40.371 67.731,35.303 69.512,34.708 70.291 C 34.456 70.621,34.406 77.756,34.655 77.910 C 34.741 77.962,35.622 77.600,36.614 77.104 C 39.507 75.657,41.535 75.052,44.042 74.889 C 44.935 74.831,45.667 74.719,45.667 74.641 C 45.667 74.248,41.029 74.958,39.961 75.516 C 39.801 75.599,39.549 75.667,39.400 75.667 C 39.250 75.667,38.208 76.117,37.083 76.667 C 35.959 77.217,34.955 77.667,34.853 77.667 C 34.722 77.667,34.667 76.609,34.667 74.085 L 34.667 70.504 35.292 70.120 C 35.635 69.909,36.254 69.599,36.667 69.432 C 37.079 69.264,37.567 69.064,37.750 68.988 C 40.109 68.002,42.692 67.499,45.500 67.477 C 47.271 67.463,47.716 67.423,47.167 67.325 C 46.215 67.156,44.375 67.166,43.083 67.348 M89.750 67.402 C 88.459 67.622,87.495 68.012,86.147 68.858 C 84.833 69.681,84.523 69.821,83.243 70.161 C 82.576 70.339,82.270 70.476,82.523 70.485 C 83.263 70.510,84.688 69.973,86.000 69.172 C 88.450 67.678,89.128 67.501,92.405 67.498 C 95.349 67.495,96.831 67.745,98.714 68.560 C 99.061 68.710,99.421 68.833,99.514 68.833 C 99.757 68.833,101.545 69.982,101.792 70.297 C 102.040 70.615,102.096 77.667,101.850 77.667 C 101.768 77.667,101.336 77.422,100.891 77.122 C 97.027 74.522,91.269 73.906,88.295 75.776 C 87.953 75.991,87.597 76.167,87.503 76.167 C 87.410 76.167,87.333 76.242,87.333 76.333 C 87.333 76.425,87.257 76.500,87.163 76.500 C 87.070 76.500,86.714 76.671,86.372 76.879 C 85.000 77.716,84.074 77.917,81.606 77.912 C 79.976 77.909,79.460 77.950,79.856 78.053 C 81.735 78.542,85.094 77.937,87.000 76.766 C 89.657 75.134,90.350 74.919,92.917 74.932 C 94.814 74.942,96.397 75.199,97.646 75.702 C 98.779 76.158,100.166 76.857,100.997 77.390 C 102.190 78.155,102.161 78.237,102.164 74.079 C 102.167 70.058,102.198 70.159,100.702 69.287 C 97.654 67.512,93.395 66.779,89.750 67.402 M66.833 74.820 C 65.680 74.957,64.353 75.299,64.092 75.528 C 64.005 75.604,63.838 75.667,63.721 75.667 C 63.604 75.667,62.737 76.037,61.796 76.490 C 59.533 77.577,58.747 77.818,57.124 77.924 C 56.377 77.973,55.724 78.057,55.674 78.111 C 55.624 78.165,56.258 78.171,57.083 78.123 C 58.759 78.026,59.566 77.787,61.750 76.743 C 65.006 75.187,66.003 74.938,69.000 74.931 C 70.237 74.929,71.550 74.982,71.917 75.050 C 72.366 75.133,72.499 75.121,72.324 75.013 C 71.971 74.795,68.172 74.662,66.833 74.820 M43.083 85.682 C 40.371 86.064,35.303 87.845,34.708 88.624 C 34.446 88.968,34.407 96.090,34.667 96.250 C 34.758 96.307,35.714 95.923,36.792 95.397 C 39.217 94.214,39.296 94.184,41.917 93.475 C 44.373 92.811,47.914 93.273,50.167 94.552 C 54.723 97.140,57.147 97.244,61.820 95.052 C 64.433 93.826,65.466 93.509,67.917 93.183 L 69.083 93.027 67.750 93.106 C 66.403 93.185,64.384 93.601,64.092 93.860 C 64.005 93.937,63.838 94.000,63.723 94.000 C 63.607 94.000,62.778 94.357,61.881 94.793 C 57.180 97.080,54.902 96.969,49.917 94.209 C 47.149 92.678,43.143 92.529,39.917 93.839 C 39.733 93.913,39.208 94.106,38.750 94.268 C 38.292 94.430,37.220 94.920,36.368 95.359 C 34.497 96.321,34.649 96.604,34.705 92.246 L 34.750 88.750 36.083 88.095 C 37.654 87.325,37.713 87.300,39.333 86.780 C 41.666 86.031,42.962 85.830,45.583 85.809 C 47.438 85.794,47.868 85.755,47.250 85.659 C 46.179 85.492,44.356 85.502,43.083 85.682 M66.583 85.682 C 64.892 85.920,63.438 86.366,59.917 87.726 C 56.746 88.951,55.800 88.909,52.779 87.407 C 51.066 86.556,48.827 85.774,48.386 85.872 C 48.219 85.909,48.533 86.040,49.083 86.163 C 49.633 86.286,50.155 86.449,50.242 86.526 C 50.329 86.604,50.500 86.667,50.622 86.667 C 50.743 86.667,51.685 87.075,52.713 87.573 C 56.034 89.182,57.176 89.178,61.000 87.539 C 63.789 86.344,66.020 85.834,68.469 85.831 C 69.788 85.829,70.336 85.776,70.167 85.667 C 69.870 85.475,67.991 85.483,66.583 85.682 M90.089 85.685 C 88.661 85.894,87.712 86.245,86.402 87.051 C 83.315 88.949,81.386 89.101,77.465 87.754 C 76.569 87.446,75.793 87.263,75.741 87.347 C 75.689 87.431,75.824 87.500,76.040 87.500 C 76.256 87.500,76.505 87.568,76.592 87.651 C 76.679 87.734,77.050 87.888,77.417 87.994 C 77.783 88.099,78.496 88.305,79.000 88.452 C 81.346 89.137,83.886 88.793,86.000 87.505 C 88.457 86.008,89.127 85.833,92.426 85.833 C 94.792 85.833,96.732 86.075,97.750 86.496 C 97.933 86.572,98.512 86.799,99.036 87.001 C 100.095 87.408,101.466 88.230,101.783 88.646 C 102.040 88.983,102.093 96.000,101.839 96.000 C 101.750 96.000,101.168 95.677,100.547 95.283 C 99.925 94.888,99.079 94.429,98.667 94.263 C 98.254 94.096,97.767 93.899,97.583 93.824 C 94.157 92.421,90.497 92.795,86.917 94.913 C 83.332 97.034,80.487 96.939,75.501 94.531 C 74.356 93.978,73.387 93.557,73.348 93.596 C 73.241 93.703,73.245 93.706,75.917 94.952 C 80.733 97.200,83.686 97.172,87.417 94.843 C 91.308 92.414,96.486 92.744,100.878 95.702 C 101.406 96.058,101.913 96.304,102.003 96.248 C 102.299 96.065,102.214 88.975,101.910 88.541 C 100.546 86.593,94.269 85.077,90.089 85.685 " stroke="none" fill="#72cc84" fill-rule="evenodd"></path><path id="path4" d="M44.708 48.788 C 45.052 48.824,45.615 48.824,45.958 48.788 C 46.302 48.752,46.021 48.723,45.333 48.723 C 44.646 48.723,44.365 48.752,44.708 48.788 M68.121 48.787 C 68.417 48.824,68.942 48.824,69.288 48.788 C 69.634 48.752,69.392 48.722,68.750 48.721 C 68.108 48.721,67.825 48.750,68.121 48.787 M91.625 48.789 C 92.015 48.824,92.652 48.824,93.042 48.789 C 93.431 48.754,93.112 48.725,92.333 48.725 C 91.554 48.725,91.235 48.754,91.625 48.789 M81.375 51.953 C 81.627 51.991,82.040 51.991,82.292 51.953 C 82.544 51.915,82.337 51.883,81.833 51.883 C 81.329 51.883,81.123 51.915,81.375 51.953 M43.458 56.618 C 43.665 56.657,44.002 56.657,44.208 56.618 C 44.415 56.578,44.246 56.545,43.833 56.545 C 43.421 56.545,43.252 56.578,43.458 56.618 M45.875 56.615 C 46.035 56.657,46.298 56.657,46.458 56.615 C 46.619 56.573,46.487 56.539,46.167 56.539 C 45.846 56.539,45.715 56.573,45.875 56.615 M68.380 56.623 C 68.818 56.657,69.493 56.657,69.880 56.622 C 70.267 56.587,69.908 56.559,69.083 56.559 C 68.258 56.560,67.942 56.588,68.380 56.623 M92.129 56.622 C 92.521 56.657,93.121 56.657,93.463 56.621 C 93.804 56.585,93.483 56.557,92.750 56.557 C 92.017 56.558,91.737 56.587,92.129 56.622 M44.875 67.119 C 45.127 67.158,45.540 67.158,45.792 67.119 C 46.044 67.081,45.837 67.050,45.333 67.050 C 44.829 67.050,44.623 67.081,44.875 67.119 M91.961 67.121 C 92.261 67.158,92.711 67.157,92.961 67.119 C 93.212 67.081,92.967 67.051,92.417 67.052 C 91.867 67.053,91.662 67.084,91.961 67.121 M43.963 74.956 C 44.355 74.991,44.955 74.990,45.296 74.954 C 45.637 74.919,45.317 74.890,44.583 74.890 C 43.850 74.891,43.571 74.920,43.963 74.956 M68.463 74.956 C 68.855 74.991,69.455 74.990,69.796 74.954 C 70.137 74.919,69.817 74.890,69.083 74.890 C 68.350 74.891,68.071 74.920,68.463 74.956 M92.121 74.954 C 92.417 74.990,92.942 74.991,93.288 74.955 C 93.634 74.919,93.392 74.889,92.750 74.888 C 92.108 74.887,91.825 74.917,92.121 74.954 M56.121 78.287 C 56.417 78.324,56.942 78.324,57.288 78.288 C 57.634 78.252,57.392 78.222,56.750 78.221 C 56.108 78.221,55.825 78.250,56.121 78.287 M80.964 78.290 C 81.448 78.324,82.198 78.323,82.631 78.289 C 83.063 78.255,82.667 78.227,81.750 78.228 C 80.833 78.228,80.480 78.256,80.964 78.290 M44.875 85.453 C 45.127 85.491,45.540 85.491,45.792 85.453 C 46.044 85.415,45.837 85.383,45.333 85.383 C 44.829 85.383,44.623 85.415,44.875 85.453 M68.375 85.453 C 68.627 85.491,69.040 85.491,69.292 85.453 C 69.544 85.415,69.337 85.383,68.833 85.383 C 68.329 85.383,68.123 85.415,68.375 85.453 M91.792 85.454 C 92.090 85.491,92.577 85.491,92.875 85.454 C 93.173 85.417,92.929 85.387,92.333 85.387 C 91.737 85.387,91.494 85.417,91.792 85.454 M56.125 88.618 C 56.331 88.657,56.669 88.657,56.875 88.618 C 57.081 88.578,56.913 88.545,56.500 88.545 C 56.087 88.545,55.919 88.578,56.125 88.618 M81.292 88.621 C 81.590 88.658,82.077 88.658,82.375 88.621 C 82.673 88.584,82.429 88.553,81.833 88.553 C 81.237 88.553,80.994 88.584,81.292 88.621 M44.131 93.290 C 44.615 93.324,45.365 93.323,45.797 93.289 C 46.230 93.255,45.833 93.227,44.917 93.228 C 44.000 93.228,43.646 93.256,44.131 93.290 M68.127 93.285 C 68.334 93.324,68.634 93.323,68.794 93.281 C 68.953 93.239,68.783 93.207,68.417 93.209 C 68.050 93.211,67.920 93.245,68.127 93.285 M92.292 93.287 C 92.590 93.324,93.077 93.324,93.375 93.287 C 93.673 93.250,93.429 93.220,92.833 93.220 C 92.237 93.220,91.994 93.250,92.292 93.287 M65.917 93.500 C 65.492 93.683,65.930 93.683,66.500 93.500 C 66.835 93.393,66.851 93.366,66.583 93.362 C 66.400 93.359,66.100 93.421,65.917 93.500 M55.127 96.618 C 55.334 96.658,55.634 96.656,55.794 96.615 C 55.953 96.573,55.783 96.540,55.417 96.542 C 55.050 96.544,54.920 96.578,55.127 96.618 M57.127 96.618 C 57.334 96.658,57.634 96.656,57.794 96.615 C 57.953 96.573,57.783 96.540,57.417 96.542 C 57.050 96.544,56.920 96.578,57.127 96.618 M80.460 96.618 C 80.668 96.658,80.968 96.656,81.127 96.615 C 81.286 96.573,81.117 96.540,80.750 96.542 C 80.383 96.544,80.253 96.578,80.460 96.618 M82.627 96.618 C 82.834 96.658,83.134 96.656,83.294 96.615 C 83.453 96.573,83.283 96.540,82.917 96.542 C 82.550 96.544,82.420 96.578,82.627 96.618 " stroke="none" fill="#a2d95a" fill-rule="evenodd"></path><path id="path5" d="M65.242 49.625 C 65.097 49.969,64.527 51.337,63.975 52.667 C 63.423 53.996,62.869 55.308,62.745 55.583 C 61.972 57.297,61.696 58.167,61.928 58.167 C 62.066 58.167,62.167 58.005,62.167 57.783 C 62.167 57.572,62.231 57.329,62.309 57.242 C 62.387 57.155,62.957 55.846,63.577 54.333 C 64.806 51.329,65.055 50.745,65.522 49.760 C 65.884 48.996,65.884 49.000,65.669 49.000 C 65.578 49.000,65.386 49.281,65.242 49.625 M52.944 50.944 C 52.883 51.006,52.833 51.227,52.833 51.437 C 52.833 51.646,52.763 51.990,52.678 52.200 C 52.592 52.411,52.395 53.033,52.238 53.583 C 51.992 54.450,51.692 55.420,50.997 57.595 C 50.794 58.230,50.791 58.379,50.983 58.260 C 51.066 58.209,51.370 57.399,51.660 56.459 C 51.949 55.519,52.251 54.563,52.330 54.333 C 52.409 54.104,52.599 53.467,52.752 52.917 C 52.905 52.367,53.098 51.744,53.182 51.534 C 53.425 50.919,53.294 50.595,52.944 50.944 M86.917 53.673 C 86.367 53.939,85.863 54.159,85.797 54.161 C 85.731 54.164,85.267 54.354,84.766 54.583 C 84.265 54.813,83.815 55.000,83.766 55.000 C 83.717 55.000,83.267 55.188,82.766 55.417 C 82.265 55.646,81.815 55.833,81.766 55.833 C 81.717 55.833,81.267 56.021,80.766 56.250 C 80.265 56.479,79.815 56.667,79.766 56.667 C 79.717 56.667,79.243 56.858,78.713 57.093 C 78.183 57.327,77.563 57.598,77.333 57.696 C 77.104 57.793,76.786 57.938,76.627 58.019 C 76.468 58.100,76.220 58.167,76.076 58.167 C 75.932 58.167,75.856 58.235,75.907 58.318 C 76.013 58.489,76.542 58.379,77.162 58.055 C 77.394 57.934,77.637 57.835,77.703 57.834 C 77.769 57.834,78.233 57.646,78.734 57.417 C 79.235 57.188,79.685 57.000,79.734 57.000 C 79.783 57.000,80.233 56.813,80.734 56.583 C 81.235 56.354,81.685 56.167,81.734 56.167 C 81.783 56.167,82.233 55.979,82.734 55.750 C 83.235 55.521,83.685 55.333,83.734 55.333 C 83.783 55.333,84.233 55.146,84.734 54.917 C 85.235 54.688,85.686 54.500,85.735 54.500 C 85.785 54.500,86.316 54.275,86.917 54.000 C 88.579 53.239,88.573 53.231,87.811 55.121 C 86.601 58.124,86.430 58.737,86.917 58.333 C 87.054 58.219,87.167 57.947,87.167 57.727 C 87.167 57.508,87.242 57.199,87.334 57.039 C 87.613 56.560,88.667 53.698,88.667 53.423 C 88.667 53.037,88.049 53.125,86.917 53.673 M47.833 67.847 C 47.833 68.038,47.655 68.732,47.438 69.389 C 47.220 70.046,46.842 71.258,46.597 72.083 C 46.353 72.908,46.040 73.836,45.902 74.146 C 45.765 74.455,45.694 74.750,45.746 74.801 C 45.905 74.961,46.186 74.566,46.331 73.979 C 46.407 73.670,46.658 72.817,46.888 72.083 C 48.183 67.967,48.303 67.500,48.067 67.500 C 47.938 67.500,47.833 67.656,47.833 67.847 M72.250 70.253 C 71.792 70.473,70.854 70.908,70.167 71.221 C 68.187 72.122,67.140 72.597,66.333 72.960 C 63.150 74.394,58.230 76.619,57.363 77.017 C 56.784 77.282,56.259 77.502,56.197 77.504 C 56.134 77.506,55.896 77.658,55.667 77.841 L 55.250 78.175 55.750 78.065 C 56.025 78.005,56.368 77.853,56.513 77.728 C 56.658 77.602,56.830 77.500,56.895 77.500 C 56.960 77.500,57.517 77.269,58.132 76.986 C 58.747 76.703,59.550 76.335,59.917 76.167 C 60.283 75.999,61.166 75.593,61.879 75.264 C 62.591 74.936,63.209 74.667,63.251 74.667 C 63.294 74.667,64.125 74.292,65.100 73.833 C 66.074 73.375,66.899 73.000,66.933 73.000 C 66.967 73.000,67.792 72.625,68.766 72.167 C 69.740 71.708,70.561 71.333,70.590 71.333 C 70.619 71.333,71.219 71.067,71.924 70.741 C 73.451 70.036,73.438 70.028,73.177 71.456 C 73.064 72.076,72.910 72.967,72.836 73.437 C 72.762 73.907,72.624 74.436,72.529 74.613 C 72.434 74.790,72.417 75.032,72.491 75.152 C 72.688 75.471,72.835 75.154,73.007 74.036 C 73.088 73.512,73.290 72.435,73.458 71.642 C 73.884 69.619,73.792 69.514,72.250 70.253 M81.807 70.680 C 81.666 70.994,81.455 71.512,81.339 71.833 C 81.223 72.154,81.035 72.642,80.922 72.917 C 80.809 73.192,80.623 73.679,80.508 74.000 C 80.394 74.321,80.235 74.733,80.157 74.917 C 79.609 76.193,79.167 77.439,79.167 77.705 C 79.167 78.184,79.459 77.900,79.592 77.292 C 79.657 76.996,79.879 76.341,80.086 75.835 C 80.292 75.330,80.657 74.410,80.897 73.792 C 81.137 73.173,81.529 72.186,81.769 71.598 C 82.223 70.483,82.256 69.686,81.807 70.680 M70.294 86.375 C 70.226 87.033,69.808 89.209,69.239 91.866 C 68.962 93.159,68.947 93.386,69.143 93.265 C 69.221 93.216,69.376 92.705,69.487 92.130 C 69.598 91.554,69.756 90.783,69.837 90.417 C 70.011 89.635,70.427 87.389,70.585 86.375 C 70.652 85.945,70.631 85.667,70.531 85.667 C 70.441 85.667,70.334 85.985,70.294 86.375 M75.324 87.448 C 75.123 87.985,73.807 91.352,73.324 92.564 C 72.969 93.455,72.932 93.667,73.132 93.667 C 73.205 93.667,73.406 93.235,73.579 92.708 C 73.753 92.181,73.942 91.675,74.001 91.583 C 74.060 91.492,74.433 90.554,74.829 89.500 C 75.225 88.446,75.617 87.496,75.699 87.390 C 75.791 87.272,75.781 87.154,75.674 87.088 C 75.578 87.028,75.421 87.190,75.324 87.448 " stroke="none" fill="#7c8986" fill-rule="evenodd"></path><path id="path6" d="M61.150 25.165 C 60.871 25.329,60.568 26.066,60.086 27.750 C 59.695 29.116,59.564 29.552,59.104 31.000 C 58.886 31.688,58.539 32.813,58.333 33.500 C 58.127 34.188,57.864 35.050,57.748 35.417 C 57.631 35.783,57.405 36.533,57.245 37.083 C 57.085 37.633,56.786 38.608,56.581 39.250 C 56.375 39.892,56.078 40.867,55.920 41.417 C 55.535 42.761,55.402 43.201,54.941 44.667 C 54.725 45.354,54.339 46.592,54.084 47.417 C 53.829 48.242,53.518 49.238,53.394 49.631 C 53.133 50.451,53.094 50.978,53.312 50.742 C 53.454 50.588,53.825 49.466,54.414 47.417 C 54.572 46.867,54.764 46.229,54.840 46.000 C 54.978 45.589,55.973 42.349,56.761 39.750 C 56.983 39.017,57.234 38.192,57.319 37.917 C 57.459 37.463,58.622 33.632,58.989 32.417 C 59.072 32.142,59.453 30.904,59.836 29.667 C 60.219 28.429,60.649 27.042,60.790 26.583 C 60.932 26.125,61.100 25.691,61.164 25.618 C 61.270 25.498,75.161 25.439,75.280 25.558 C 75.308 25.586,75.191 25.903,75.019 26.263 C 74.847 26.622,72.754 31.604,70.367 37.333 C 67.979 43.063,65.904 48.039,65.754 48.392 C 65.577 48.809,65.549 49.011,65.675 48.969 C 65.781 48.934,66.036 48.495,66.240 47.994 C 66.444 47.493,66.736 46.802,66.889 46.458 C 67.136 45.903,67.374 45.343,67.828 44.250 C 67.904 44.067,68.091 43.617,68.244 43.250 C 68.397 42.883,68.585 42.433,68.661 42.250 C 68.737 42.067,68.925 41.617,69.078 41.250 C 69.231 40.883,69.418 40.433,69.494 40.250 C 69.570 40.067,69.758 39.617,69.911 39.250 C 70.064 38.883,70.259 38.415,70.345 38.208 C 70.430 38.002,70.570 37.665,70.655 37.458 C 70.741 37.252,70.937 36.783,71.092 36.417 C 71.246 36.050,71.482 35.487,71.614 35.167 C 71.747 34.846,71.936 34.396,72.034 34.167 C 72.131 33.938,72.271 33.600,72.344 33.417 C 72.470 33.103,72.859 32.165,73.175 31.417 C 73.252 31.233,73.461 30.746,73.639 30.333 C 73.817 29.921,74.129 29.171,74.332 28.667 C 74.839 27.406,74.937 27.174,75.252 26.471 C 75.403 26.134,75.502 25.684,75.472 25.471 L 75.417 25.083 68.417 25.046 C 64.263 25.023,61.308 25.072,61.150 25.165 M61.202 59.306 C 60.908 59.953,60.667 60.522,60.667 60.570 C 60.667 60.618,60.479 61.067,60.250 61.568 C 60.021 62.069,59.833 62.519,59.833 62.568 C 59.833 62.675,59.052 64.467,58.830 64.868 C 58.360 65.717,58.959 65.739,60.698 64.937 C 61.219 64.697,61.685 64.500,61.734 64.500 C 61.783 64.500,62.233 64.313,62.734 64.083 C 63.235 63.854,63.685 63.667,63.734 63.667 C 63.783 63.667,64.233 63.479,64.734 63.250 C 65.235 63.021,65.685 62.833,65.734 62.833 C 65.783 62.833,66.233 62.646,66.734 62.417 C 67.235 62.188,67.685 62.000,67.734 62.000 C 67.783 62.000,68.233 61.813,68.734 61.583 C 69.235 61.354,69.685 61.167,69.734 61.167 C 69.783 61.167,70.233 60.979,70.734 60.750 C 71.235 60.521,71.685 60.333,71.734 60.333 C 71.783 60.333,72.233 60.146,72.734 59.917 C 73.235 59.688,73.686 59.500,73.735 59.500 C 74.012 59.500,76.051 58.443,75.887 58.384 C 75.779 58.345,75.372 58.468,74.981 58.657 C 74.590 58.846,74.209 59.000,74.135 59.000 C 74.060 59.000,73.610 59.188,73.135 59.417 C 72.660 59.646,72.210 59.833,72.135 59.833 C 72.060 59.833,71.610 60.021,71.135 60.250 C 70.660 60.479,70.210 60.667,70.135 60.667 C 70.060 60.667,69.610 60.854,69.135 61.083 C 68.660 61.313,68.210 61.500,68.135 61.500 C 68.060 61.500,67.610 61.688,67.135 61.917 C 66.660 62.146,66.210 62.333,66.135 62.333 C 66.060 62.333,65.610 62.521,65.135 62.750 C 64.660 62.979,64.210 63.167,64.135 63.167 C 64.060 63.167,63.610 63.354,63.135 63.583 C 62.660 63.813,62.212 64.000,62.140 64.000 C 62.068 64.000,61.613 64.177,61.130 64.394 C 59.686 65.039,59.294 65.183,59.210 65.099 C 59.166 65.055,59.746 63.555,60.498 61.765 C 61.804 58.657,62.324 56.842,61.202 59.306 M50.516 59.125 C 50.393 59.560,50.113 60.479,49.893 61.167 C 49.487 62.437,49.423 62.649,48.909 64.417 C 48.749 64.967,48.485 65.827,48.323 66.329 C 48.160 66.831,48.069 67.311,48.122 67.395 C 48.224 67.561,48.572 66.652,49.167 64.667 C 49.373 63.979,49.636 63.117,49.752 62.750 C 49.869 62.383,50.094 61.633,50.254 61.083 C 50.413 60.533,50.646 59.762,50.772 59.369 C 51.033 58.552,51.054 58.333,50.870 58.333 C 50.798 58.333,50.639 58.690,50.516 59.125 M86.381 58.875 C 86.285 59.081,86.011 59.757,85.772 60.376 C 84.933 62.557,84.501 63.679,84.107 64.709 C 83.450 66.426,82.810 68.062,82.658 68.417 C 82.193 69.500,82.006 70.062,82.084 70.139 C 82.252 70.307,82.445 69.908,83.325 67.583 C 83.811 66.300,84.302 65.025,84.418 64.750 C 84.533 64.475,84.723 63.987,84.839 63.667 C 84.955 63.346,85.142 62.858,85.255 62.583 C 85.368 62.308,85.556 61.821,85.672 61.500 C 85.788 61.179,85.976 60.692,86.090 60.417 C 86.618 59.141,86.819 58.500,86.693 58.500 C 86.618 58.500,86.477 58.669,86.381 58.875 M45.604 75.354 C 45.470 75.664,45.235 76.367,45.080 76.917 C 44.640 78.487,43.994 80.582,43.392 82.389 C 43.021 83.502,43.278 83.782,44.250 83.327 C 44.910 83.018,46.637 82.228,48.250 81.499 C 49.921 80.743,51.998 79.798,54.292 78.751 C 54.865 78.489,55.333 78.215,55.333 78.143 C 55.333 77.957,54.914 78.119,52.250 79.333 C 51.700 79.584,50.875 79.959,50.417 80.167 C 49.958 80.374,49.096 80.766,48.500 81.037 C 47.904 81.308,47.192 81.630,46.917 81.753 C 46.642 81.875,45.834 82.244,45.121 82.571 C 43.653 83.246,43.412 83.294,43.585 82.875 C 43.651 82.715,43.764 82.358,43.837 82.083 C 43.910 81.808,44.157 80.983,44.387 80.250 C 45.591 76.415,46.011 74.955,45.933 74.878 C 45.886 74.831,45.738 75.045,45.604 75.354 M72.428 75.542 C 72.295 75.988,72.012 77.274,71.942 77.750 C 71.901 78.025,71.740 78.887,71.583 79.667 C 71.427 80.446,71.239 81.421,71.167 81.833 C 71.094 82.246,70.915 83.221,70.768 84.000 C 70.460 85.629,70.457 85.667,70.626 85.667 C 70.695 85.667,70.890 84.898,71.059 83.958 C 71.229 83.019,71.428 82.025,71.501 81.750 C 71.575 81.475,71.763 80.500,71.919 79.583 C 72.075 78.667,72.266 77.692,72.342 77.417 C 72.557 76.650,72.718 75.333,72.597 75.333 C 72.538 75.333,72.462 75.427,72.428 75.542 M78.970 78.000 C 78.756 78.517,75.957 85.777,75.736 86.388 C 75.582 86.815,75.567 87.005,75.691 86.964 C 75.793 86.930,75.987 86.606,76.122 86.243 C 76.407 85.477,77.120 83.641,77.414 82.917 C 77.525 82.642,77.712 82.154,77.828 81.833 C 77.944 81.512,78.132 81.025,78.245 80.750 C 78.358 80.475,78.544 79.987,78.658 79.667 C 78.773 79.346,78.942 78.924,79.033 78.730 C 79.125 78.536,79.171 78.236,79.137 78.064 C 79.086 77.812,79.053 77.799,78.970 78.000 M68.869 93.917 C 68.765 94.283,68.482 95.633,68.240 96.917 C 67.646 100.066,67.102 102.876,66.657 105.083 C 66.454 106.092,66.231 107.254,66.163 107.667 C 65.972 108.807,65.678 110.340,65.506 111.083 C 64.966 113.414,65.283 114.225,66.005 112.363 C 66.206 111.842,66.466 111.192,66.582 110.917 C 66.698 110.642,67.259 109.179,67.828 107.667 C 68.397 106.154,68.930 104.767,69.012 104.583 C 69.094 104.400,69.764 102.675,70.500 100.750 C 71.236 98.825,71.906 97.100,71.989 96.917 C 72.073 96.733,72.272 96.208,72.432 95.750 C 72.593 95.292,72.776 94.842,72.839 94.750 C 73.029 94.475,73.183 93.667,73.045 93.669 C 72.927 93.671,72.723 94.151,71.574 97.126 C 71.087 98.388,70.349 100.293,70.170 100.750 C 70.099 100.933,69.908 101.421,69.747 101.833 C 69.586 102.246,69.364 102.808,69.252 103.083 C 69.141 103.358,68.955 103.846,68.839 104.167 C 68.723 104.487,68.535 104.975,68.422 105.250 C 68.309 105.525,68.122 106.013,68.005 106.333 C 67.889 106.654,67.702 107.142,67.589 107.417 C 67.476 107.692,67.290 108.179,67.175 108.500 C 66.863 109.373,66.740 109.688,66.440 110.381 C 66.290 110.728,66.167 111.121,66.167 111.256 C 66.167 111.390,66.092 111.500,66.000 111.500 C 65.770 111.500,65.791 111.000,66.073 109.784 C 66.205 109.215,66.512 107.700,66.754 106.417 C 66.996 105.133,67.382 103.108,67.612 101.917 C 67.841 100.725,68.209 98.813,68.429 97.667 C 68.650 96.521,68.914 95.205,69.017 94.742 C 69.259 93.650,69.138 92.972,68.869 93.917 " stroke="none" fill="#f89a10" fill-rule="evenodd"></path><path id="path7" d="M92.042 48.615 C 92.202 48.657,92.465 48.657,92.625 48.615 C 92.785 48.573,92.654 48.539,92.333 48.539 C 92.013 48.539,91.881 48.573,92.042 48.615 M42.500 48.833 C 42.182 49.039,42.524 49.039,43.167 48.833 L 43.583 48.700 43.167 48.686 C 42.938 48.678,42.637 48.744,42.500 48.833 M47.583 48.833 C 48.082 49.047,48.498 49.047,48.167 48.833 C 48.029 48.744,47.767 48.676,47.583 48.681 L 47.250 48.690 47.583 48.833 M66.000 48.833 C 65.682 49.039,66.024 49.039,66.667 48.833 L 67.083 48.700 66.667 48.686 C 66.438 48.678,66.137 48.744,66.000 48.833 M70.514 48.727 C 70.710 48.896,71.518 48.997,71.421 48.840 C 71.362 48.745,71.118 48.667,70.879 48.667 C 70.640 48.667,70.476 48.694,70.514 48.727 M89.500 48.833 C 89.169 49.047,89.585 49.047,90.083 48.833 L 90.417 48.690 90.083 48.681 C 89.900 48.676,89.638 48.744,89.500 48.833 M94.833 48.833 C 95.476 49.039,95.818 49.039,95.500 48.833 C 95.362 48.744,95.063 48.678,94.833 48.686 L 94.417 48.700 94.833 48.833 M40.833 49.174 C 40.651 49.298,40.718 49.313,41.083 49.232 C 41.696 49.095,41.829 48.999,41.403 49.003 C 41.227 49.004,40.971 49.081,40.833 49.174 M49.583 49.255 C 50.447 49.566,50.747 49.558,50.023 49.243 C 49.714 49.110,49.339 49.003,49.189 49.007 C 49.039 49.011,49.217 49.123,49.583 49.255 M72.750 49.255 C 73.614 49.566,73.914 49.558,73.189 49.243 C 72.881 49.110,72.506 49.003,72.356 49.007 C 72.206 49.011,72.383 49.123,72.750 49.255 M97.000 49.259 C 97.412 49.389,97.825 49.490,97.917 49.485 C 98.208 49.467,96.931 49.025,96.583 49.024 C 96.400 49.023,96.587 49.129,97.000 49.259 M75.167 50.083 C 75.396 50.214,75.696 50.321,75.833 50.321 C 75.971 50.321,75.831 50.211,75.523 50.077 C 74.813 49.769,74.622 49.772,75.167 50.083 M86.125 50.140 C 85.873 50.292,85.667 50.478,85.667 50.553 C 85.667 50.660,86.286 50.302,86.819 49.887 C 87.042 49.714,86.510 49.908,86.125 50.140 M99.394 50.084 C 100.002 50.401,100.156 50.403,99.740 50.089 C 99.562 49.954,99.304 49.842,99.167 49.840 C 99.029 49.837,99.131 49.947,99.394 50.084 M100.833 50.727 C 100.833 50.773,101.058 50.971,101.333 51.167 C 101.608 51.362,101.833 51.485,101.833 51.439 C 101.833 51.394,101.608 51.196,101.333 51.000 C 101.058 50.804,100.833 50.681,100.833 50.727 M80.826 51.690 C 81.418 51.762,82.280 51.762,82.743 51.691 C 83.411 51.588,83.190 51.562,81.667 51.561 C 79.941 51.560,79.857 51.573,80.826 51.690 M102.165 55.750 C 102.102 58.827,102.035 59.740,101.875 59.708 C 101.760 59.685,101.667 59.742,101.667 59.833 C 101.667 60.076,102.163 60.038,102.258 59.788 C 102.303 59.672,102.319 57.815,102.293 55.663 L 102.247 51.750 102.165 55.750 M34.370 55.880 C 34.332 59.967,34.417 60.483,35.029 59.871 C 35.149 59.751,35.107 59.706,34.893 59.724 C 34.602 59.748,34.578 59.519,34.495 55.833 L 34.407 51.917 34.370 55.880 M43.208 56.786 C 43.460 56.824,43.873 56.824,44.125 56.786 C 44.377 56.748,44.171 56.717,43.667 56.717 C 43.163 56.717,42.956 56.748,43.208 56.786 M45.958 56.784 C 46.165 56.824,46.502 56.824,46.708 56.784 C 46.915 56.745,46.746 56.712,46.333 56.712 C 45.921 56.712,45.752 56.745,45.958 56.784 M68.125 56.790 C 68.698 56.823,69.635 56.823,70.208 56.790 C 70.781 56.758,70.313 56.731,69.167 56.731 C 68.021 56.731,67.552 56.758,68.125 56.790 M91.958 56.790 C 92.440 56.823,93.227 56.823,93.708 56.790 C 94.190 56.756,93.796 56.728,92.833 56.728 C 91.871 56.728,91.477 56.756,91.958 56.790 M41.750 57.000 L 41.417 57.143 41.750 57.152 C 41.933 57.157,42.196 57.089,42.333 57.000 C 42.665 56.786,42.248 56.786,41.750 57.000 M65.833 57.000 C 65.498 57.107,65.482 57.134,65.750 57.138 C 65.933 57.141,66.233 57.079,66.417 57.000 C 66.841 56.817,66.403 56.817,65.833 57.000 M71.750 57.000 C 71.933 57.079,72.233 57.141,72.417 57.138 C 72.685 57.134,72.668 57.107,72.333 57.000 C 71.763 56.817,71.325 56.817,71.750 57.000 M90.167 57.000 C 89.944 57.144,89.944 57.162,90.167 57.162 C 90.304 57.162,90.529 57.089,90.667 57.000 C 90.889 56.856,90.889 56.838,90.667 56.838 C 90.529 56.838,90.304 56.911,90.167 57.000 M95.167 57.000 C 95.304 57.089,95.567 57.157,95.750 57.152 L 96.083 57.143 95.750 57.000 C 95.252 56.786,94.835 56.786,95.167 57.000 M48.500 57.250 C 48.500 57.329,49.829 58.000,49.985 58.000 C 50.132 58.000,49.451 57.583,48.958 57.371 C 48.706 57.263,48.500 57.208,48.500 57.250 M87.171 58.425 C 86.853 58.650,86.643 58.833,86.704 58.833 C 86.849 58.833,88.000 58.153,88.000 58.067 C 88.000 57.917,87.719 58.038,87.171 58.425 M99.074 58.255 C 99.251 58.390,99.472 58.500,99.564 58.500 C 99.655 58.500,99.585 58.390,99.407 58.255 C 99.229 58.121,99.008 58.011,98.917 58.011 C 98.825 58.011,98.896 58.121,99.074 58.255 M37.167 58.583 C 36.938 58.714,36.825 58.822,36.917 58.822 C 37.008 58.822,37.271 58.714,37.500 58.583 C 37.729 58.452,37.842 58.345,37.750 58.345 C 37.658 58.345,37.396 58.452,37.167 58.583 M42.667 67.167 C 42.348 67.372,42.691 67.372,43.333 67.167 L 43.750 67.033 43.333 67.019 C 43.104 67.011,42.804 67.078,42.667 67.167 M47.413 67.177 C 47.719 67.268,47.971 67.263,48.071 67.162 C 48.176 67.057,48.002 67.005,47.575 67.014 C 46.924 67.028,46.922 67.030,47.413 67.177 M89.583 67.167 C 89.460 67.366,89.787 67.366,90.250 67.167 C 90.548 67.039,90.535 67.022,90.135 67.012 C 89.888 67.005,89.640 67.075,89.583 67.167 M94.181 67.061 C 94.219 67.095,94.550 67.173,94.917 67.234 C 95.394 67.314,95.512 67.297,95.333 67.175 C 95.108 67.022,94.013 66.914,94.181 67.061 M40.833 67.508 C 40.651 67.631,40.718 67.647,41.083 67.565 C 41.696 67.428,41.829 67.332,41.403 67.336 C 41.227 67.337,40.971 67.415,40.833 67.508 M87.708 67.672 C 87.319 67.845,87.000 68.024,87.000 68.071 C 87.000 68.117,87.319 68.019,87.708 67.853 C 88.098 67.687,88.529 67.508,88.667 67.456 C 88.889 67.370,88.889 67.359,88.667 67.358 C 88.529 67.358,88.098 67.499,87.708 67.672 M96.347 67.393 C 96.385 67.426,96.642 67.503,96.917 67.565 C 97.282 67.647,97.349 67.631,97.167 67.508 C 96.942 67.355,96.180 67.249,96.347 67.393 M99.333 68.417 C 99.563 68.548,99.825 68.655,99.917 68.655 C 100.008 68.655,99.896 68.548,99.667 68.417 C 99.438 68.286,99.175 68.178,99.083 68.178 C 98.992 68.178,99.104 68.286,99.333 68.417 M84.926 69.255 C 84.749 69.390,84.678 69.500,84.770 69.500 C 84.861 69.500,85.082 69.390,85.260 69.255 C 85.438 69.121,85.508 69.011,85.417 69.011 C 85.325 69.011,85.104 69.121,84.926 69.255 M101.307 69.500 C 101.687 69.775,102.049 70.000,102.112 70.000 C 102.280 70.000,100.943 69.010,100.767 69.005 C 100.684 69.002,100.927 69.225,101.307 69.500 M82.418 69.997 C 82.355 70.100,82.523 70.122,82.867 70.057 C 83.604 69.917,83.667 69.833,83.038 69.833 C 82.753 69.833,82.474 69.907,82.418 69.997 M102.165 74.083 C 102.102 77.160,102.035 78.074,101.875 78.042 C 101.760 78.019,101.667 78.075,101.667 78.167 C 101.667 78.409,102.163 78.371,102.258 78.122 C 102.303 78.005,102.319 76.149,102.293 73.997 L 102.247 70.083 102.165 74.083 M34.372 74.214 C 34.332 78.309,34.417 78.817,35.035 78.198 C 35.163 78.070,35.113 78.045,34.860 78.111 C 34.507 78.204,34.506 78.189,34.458 74.227 L 34.410 70.250 34.372 74.214 M43.292 75.118 C 43.498 75.157,43.835 75.157,44.042 75.118 C 44.248 75.078,44.079 75.045,43.667 75.045 C 43.254 75.045,43.085 75.078,43.292 75.118 M68.132 75.124 C 68.708 75.156,69.608 75.156,70.132 75.123 C 70.655 75.090,70.183 75.063,69.083 75.064 C 67.983 75.064,67.555 75.091,68.132 75.124 M91.958 75.123 C 92.440 75.157,93.227 75.157,93.708 75.123 C 94.190 75.089,93.796 75.062,92.833 75.062 C 91.871 75.062,91.477 75.089,91.958 75.123 M41.833 75.333 C 41.498 75.441,41.482 75.468,41.750 75.472 C 41.933 75.474,42.233 75.412,42.417 75.333 C 42.841 75.151,42.403 75.151,41.833 75.333 M66.000 75.333 C 65.665 75.441,65.649 75.468,65.917 75.472 C 66.100 75.474,66.400 75.412,66.583 75.333 C 67.008 75.151,66.570 75.151,66.000 75.333 M71.583 75.333 C 71.767 75.412,72.067 75.474,72.250 75.472 C 72.518 75.468,72.502 75.441,72.167 75.333 C 71.597 75.151,71.159 75.151,71.583 75.333 M90.250 75.333 C 90.040 75.424,90.009 75.477,90.167 75.477 C 90.304 75.477,90.567 75.412,90.750 75.333 C 90.960 75.243,90.991 75.190,90.833 75.190 C 90.696 75.190,90.433 75.255,90.250 75.333 M95.083 75.333 C 95.267 75.412,95.567 75.474,95.750 75.472 C 96.018 75.468,96.002 75.441,95.667 75.333 C 95.097 75.151,94.659 75.151,95.083 75.333 M63.500 76.083 C 62.956 76.394,63.146 76.398,63.856 76.090 C 64.164 75.956,64.304 75.846,64.167 75.846 C 64.029 75.845,63.729 75.952,63.500 76.083 M88.407 76.078 C 88.229 76.213,88.158 76.323,88.250 76.323 C 88.342 76.323,88.562 76.213,88.740 76.078 C 88.918 75.943,88.989 75.833,88.897 75.833 C 88.805 75.833,88.585 75.943,88.407 76.078 M61.740 76.911 C 61.562 77.046,61.492 77.156,61.583 77.156 C 61.675 77.156,61.896 77.046,62.074 76.911 C 62.251 76.777,62.322 76.667,62.230 76.667 C 62.139 76.667,61.918 76.777,61.740 76.911 M59.833 77.750 C 59.604 77.881,59.492 77.988,59.583 77.988 C 59.675 77.988,59.938 77.881,60.167 77.750 C 60.396 77.619,60.508 77.512,60.417 77.512 C 60.325 77.512,60.063 77.619,59.833 77.750 M85.333 77.750 C 85.092 77.888,85.022 77.988,85.167 77.989 C 85.304 77.989,85.562 77.879,85.740 77.745 C 86.152 77.433,85.881 77.437,85.333 77.750 M79.167 78.167 C 79.167 78.258,79.335 78.332,79.542 78.331 C 79.845 78.329,79.869 78.297,79.667 78.167 C 79.344 77.958,79.167 77.958,79.167 78.167 M55.483 78.384 C 55.557 78.458,56.060 78.494,56.601 78.465 L 57.583 78.412 56.466 78.331 C 55.851 78.287,55.409 78.310,55.483 78.384 M81.125 78.455 C 81.515 78.490,82.152 78.490,82.542 78.455 C 82.931 78.420,82.612 78.392,81.833 78.392 C 81.054 78.392,80.735 78.420,81.125 78.455 M44.875 85.286 C 45.127 85.324,45.540 85.324,45.792 85.286 C 46.044 85.248,45.837 85.217,45.333 85.217 C 44.829 85.217,44.623 85.248,44.875 85.286 M68.375 85.286 C 68.627 85.324,69.040 85.324,69.292 85.286 C 69.544 85.248,69.337 85.217,68.833 85.217 C 68.329 85.217,68.123 85.248,68.375 85.286 M91.792 85.287 C 92.090 85.324,92.577 85.324,92.875 85.287 C 93.173 85.250,92.929 85.220,92.333 85.220 C 91.737 85.220,91.494 85.250,91.792 85.287 M42.667 85.500 C 42.348 85.706,42.691 85.706,43.333 85.500 L 43.750 85.367 43.333 85.352 C 43.104 85.345,42.804 85.411,42.667 85.500 M47.333 85.500 C 47.976 85.706,48.318 85.706,48.000 85.500 C 47.862 85.411,47.563 85.345,47.333 85.352 L 46.917 85.367 47.333 85.500 M66.167 85.500 C 65.848 85.706,66.191 85.706,66.833 85.500 L 67.250 85.367 66.833 85.352 C 66.604 85.345,66.304 85.411,66.167 85.500 M89.667 85.508 C 89.484 85.631,89.552 85.647,89.917 85.565 C 90.529 85.428,90.663 85.332,90.236 85.336 C 90.060 85.337,89.804 85.415,89.667 85.508 M94.181 85.395 C 94.219 85.428,94.550 85.506,94.917 85.567 C 95.394 85.647,95.512 85.631,95.333 85.509 C 95.108 85.356,94.013 85.247,94.181 85.395 M40.833 85.841 C 40.651 85.964,40.718 85.980,41.083 85.898 C 41.696 85.761,41.829 85.666,41.403 85.669 C 41.227 85.671,40.971 85.748,40.833 85.841 M49.250 85.833 C 49.709 86.030,49.872 86.030,49.750 85.833 C 49.693 85.742,49.483 85.672,49.282 85.678 C 48.930 85.690,48.929 85.695,49.250 85.833 M64.333 85.833 C 64.002 86.047,64.418 86.047,64.917 85.833 L 65.250 85.690 64.917 85.681 C 64.733 85.676,64.471 85.744,64.333 85.833 M96.347 85.727 C 96.385 85.759,96.642 85.837,96.917 85.898 C 97.282 85.980,97.349 85.964,97.167 85.841 C 96.942 85.689,96.180 85.582,96.347 85.727 M86.083 86.931 L 85.583 87.361 86.167 86.984 C 86.915 86.502,86.917 86.500,86.736 86.501 C 86.652 86.501,86.358 86.695,86.083 86.931 M99.333 86.750 C 99.563 86.881,99.825 86.988,99.917 86.988 C 100.008 86.988,99.896 86.881,99.667 86.750 C 99.438 86.619,99.175 86.512,99.083 86.512 C 98.992 86.512,99.104 86.619,99.333 86.750 M35.926 87.589 C 35.749 87.723,35.678 87.833,35.770 87.833 C 35.861 87.833,36.082 87.723,36.260 87.589 C 36.438 87.454,36.508 87.344,36.417 87.344 C 36.325 87.344,36.104 87.454,35.926 87.589 M77.333 87.583 C 77.563 87.714,77.900 87.821,78.083 87.820 C 78.267 87.819,78.117 87.711,77.750 87.579 C 76.915 87.278,76.801 87.279,77.333 87.583 M84.926 87.589 C 84.749 87.723,84.678 87.833,84.770 87.833 C 84.861 87.833,85.082 87.723,85.260 87.589 C 85.438 87.454,85.508 87.344,85.417 87.344 C 85.325 87.344,85.104 87.454,84.926 87.589 M101.307 87.833 C 101.687 88.108,102.049 88.333,102.112 88.333 C 102.280 88.333,100.943 87.343,100.767 87.338 C 100.684 87.335,100.927 87.558,101.307 87.833 M55.792 88.393 C 56.227 88.488,56.773 88.488,57.208 88.393 C 57.843 88.254,57.769 88.238,56.500 88.238 C 55.231 88.238,55.157 88.254,55.792 88.393 M80.417 88.357 C 81.221 88.506,82.606 88.507,83.134 88.358 C 83.345 88.299,82.670 88.246,81.634 88.241 C 80.346 88.236,79.961 88.272,80.417 88.357 M102.205 92.458 C 102.164 96.808,102.179 96.749,101.276 96.153 L 100.750 95.806 101.250 96.235 C 102.334 97.167,102.350 97.108,102.292 92.330 L 102.244 88.417 102.205 92.458 M34.368 92.532 C 34.349 94.704,34.390 96.515,34.458 96.558 C 34.527 96.601,34.564 95.461,34.540 94.026 C 34.459 89.087,34.402 88.593,34.368 92.532 M43.208 93.448 C 43.369 93.490,43.631 93.490,43.792 93.448 C 43.952 93.406,43.821 93.372,43.500 93.372 C 43.179 93.372,43.048 93.406,43.208 93.448 M67.628 93.454 C 67.928 93.491,68.378 93.490,68.628 93.452 C 68.878 93.414,68.633 93.384,68.083 93.385 C 67.533 93.386,67.328 93.417,67.628 93.454 M91.958 93.456 C 92.440 93.490,93.227 93.490,93.708 93.456 C 94.190 93.423,93.796 93.395,92.833 93.395 C 91.871 93.395,91.477 93.423,91.958 93.456 M41.833 93.667 C 41.503 93.772,41.486 93.800,41.750 93.800 C 41.933 93.800,42.271 93.740,42.500 93.667 C 42.830 93.561,42.847 93.533,42.583 93.533 C 42.400 93.533,42.063 93.593,41.833 93.667 M47.250 93.667 C 47.433 93.745,47.696 93.810,47.833 93.810 C 47.991 93.810,47.960 93.757,47.750 93.667 C 47.567 93.588,47.304 93.523,47.167 93.523 C 47.009 93.523,47.040 93.576,47.250 93.667 M66.000 93.667 C 65.670 93.772,65.653 93.800,65.917 93.800 C 66.100 93.800,66.438 93.740,66.667 93.667 C 66.997 93.561,67.014 93.533,66.750 93.533 C 66.567 93.533,66.229 93.593,66.000 93.667 M90.250 93.667 C 90.040 93.757,90.009 93.810,90.167 93.810 C 90.304 93.810,90.567 93.745,90.750 93.667 C 90.960 93.576,90.991 93.523,90.833 93.523 C 90.696 93.523,90.433 93.588,90.250 93.667 M95.000 93.667 C 95.229 93.740,95.567 93.800,95.750 93.800 C 96.014 93.800,95.997 93.772,95.667 93.667 C 95.438 93.593,95.100 93.533,94.917 93.533 C 94.653 93.533,94.670 93.561,95.000 93.667 M39.250 94.423 C 38.577 94.731,38.979 94.731,39.689 94.423 C 39.998 94.289,40.137 94.183,40.000 94.187 C 39.862 94.191,39.525 94.297,39.250 94.423 M63.500 94.417 C 62.956 94.728,63.146 94.731,63.856 94.423 C 64.164 94.289,64.304 94.179,64.167 94.179 C 64.029 94.179,63.729 94.286,63.500 94.417 M97.811 94.423 C 98.119 94.557,98.419 94.664,98.477 94.661 C 98.694 94.649,97.740 94.179,97.500 94.179 C 97.362 94.179,97.502 94.289,97.811 94.423 M52.574 96.074 C 52.751 96.217,53.014 96.327,53.157 96.320 C 53.381 96.309,53.383 96.294,53.167 96.214 C 53.029 96.163,52.767 96.053,52.583 95.968 C 52.255 95.817,52.255 95.819,52.574 96.074 M59.833 96.097 C 59.601 96.226,59.527 96.327,59.667 96.326 C 59.804 96.324,60.062 96.213,60.240 96.078 C 60.641 95.775,60.394 95.786,59.833 96.097 M55.796 96.789 C 56.188 96.824,56.788 96.824,57.129 96.788 C 57.471 96.752,57.150 96.723,56.417 96.724 C 55.683 96.724,55.404 96.754,55.796 96.789 M81.125 96.789 C 81.515 96.824,82.152 96.824,82.542 96.789 C 82.931 96.754,82.612 96.725,81.833 96.725 C 81.054 96.725,80.735 96.754,81.125 96.789 " stroke="none" fill="#cae532" fill-rule="evenodd"></path><path id="path8" d="M44.794 56.618 C 45.001 56.658,45.301 56.656,45.460 56.615 C 45.620 56.573,45.450 56.540,45.083 56.542 C 44.717 56.544,44.586 56.578,44.794 56.618 M90.708 67.115 C 90.869 67.157,91.131 67.157,91.292 67.115 C 91.452 67.073,91.321 67.039,91.000 67.039 C 90.679 67.039,90.548 67.073,90.708 67.115 " stroke="none" fill="#bce444" fill-rule="evenodd"></path></g></svg>