<?xml version="1.0" standalone="no"?>
<!DOCTYPE svg PUBLIC "-//W3C//DTD SVG 20010904//EN"
 "http://www.w3.org/TR/2001/REC-SVG-20010904/DTD/svg10.dtd">
<svg version="1.0" xmlns="http://www.w3.org/2000/svg"
 width="320.000000pt" height="329.000000pt" viewBox="0 0 320.000000 329.000000"
 preserveAspectRatio="xMidYMid meet">

<g transform="translate(0.000000,329.000000) scale(0.100000,-0.100000)"
fill="#000000" stroke="none">
<path d="M1406 2482 c-33 -108 -86 -278 -118 -377 -32 -99 -63 -200 -69 -225
-5 -25 -34 -121 -63 -215 -68 -214 -114 -369 -111 -373 2 -3 58 22 504 221
l213 96 -6 -37 c-3 -20 -10 -66 -16 -102 -5 -36 -19 -108 -30 -160 -11 -52
-34 -167 -49 -255 -16 -88 -41 -222 -56 -298 -15 -76 -25 -140 -23 -142 3 -3
120 288 200 500 17 44 51 132 75 195 69 175 107 274 153 400 24 63 54 139 68
169 37 82 52 131 41 131 -11 0 -225 -89 -314 -130 -85 -40 -375 -160 -386
-160 -10 0 12 59 63 170 19 41 46 104 61 140 23 58 212 517 252 613 l15 37
-172 0 -173 0 -59 -198z"/>
</g>
</svg>
